<?xml version="1.0" standalone="no"?>
<!DOCTYPE svg PUBLIC "-//W3C//DTD SVG 20010904//EN"
 "http://www.w3.org/TR/2001/REC-SVG-20010904/DTD/svg10.dtd">
<svg version="1.0" xmlns="http://www.w3.org/2000/svg"
 width="2048.000000pt" height="2048.000000pt" viewBox="0 0 2048.000000 2048.000000"
 preserveAspectRatio="xMidYMid meet">
<metadata>
Created by potrace 1.14, written by Peter Selinger 2001-2017
</metadata>
<g transform="translate(0.000000,2048.000000) scale(0.100000,-0.100000)"
fill="#000000" stroke="none">
<path d="M10227 19558 c-15 -16 -32 -26 -39 -22 -6 4 -8 3 -5 -3 7 -11 -79
-103 -95 -103 -4 0 -8 -7 -8 -15 0 -8 -7 -15 -15 -15 -8 0 -14 -6 -12 -12 1
-7 -4 -12 -10 -10 -7 1 -13 -5 -13 -13 0 -8 -7 -15 -15 -15 -8 0 -15 -4 -15
-9 0 -13 -47 -60 -54 -54 -3 4 -6 2 -6 -4 0 -6 -35 -46 -77 -88 -43 -43 -77
-82 -76 -86 2 -5 -4 -6 -12 -3 -9 4 -15 0 -15 -10 0 -9 -7 -16 -15 -16 -8 0
-14 -6 -13 -12 2 -7 -5 -12 -14 -12 -10 1 -14 -4 -11 -12 3 -8 -1 -14 -11 -14
-9 0 -16 -4 -16 -9 0 -13 -47 -60 -54 -54 -3 4 -6 1 -6 -5 0 -14 -138 -152
-151 -152 -5 0 -9 -5 -9 -10 0 -14 -88 -100 -102 -100 -6 0 -9 -3 -6 -6 9 -9
-132 -145 -143 -138 -5 3 -9 2 -8 -3 4 -21 -2 -33 -15 -33 -8 0 -18 -9 -21
-20 -4 -11 -11 -18 -16 -15 -5 4 -9 2 -9 -4 0 -13 -89 -101 -103 -101 -6 0 -8
-3 -5 -6 8 -7 -115 -132 -124 -127 -5 2 -8 -1 -8 -8 0 -15 -67 -79 -74 -71 -4
3 -6 1 -6 -5 0 -14 -88 -103 -101 -103 -6 0 -8 -4 -5 -9 3 -4 -6 -13 -21 -20
-14 -6 -23 -14 -20 -17 7 -7 -102 -114 -116 -114 -6 0 -8 -3 -5 -6 9 -9 -132
-145 -143 -138 -5 3 -9 2 -8 -3 4 -21 -2 -33 -15 -33 -8 0 -18 -9 -21 -20 -4
-11 -11 -18 -16 -15 -5 4 -9 -1 -9 -9 0 -9 -7 -16 -17 -16 -9 0 -14 -3 -11 -6
7 -7 -59 -74 -73 -74 -6 0 -8 -4 -5 -9 3 -4 -6 -13 -21 -20 -14 -6 -23 -14
-20 -17 7 -7 -156 -172 -165 -167 -5 2 -8 0 -8 -5 0 -14 -147 -161 -154 -155
-3 4 -6 2 -6 -4 0 -14 -88 -103 -101 -103 -6 0 -8 -4 -4 -9 3 -5 -4 -12 -15
-16 -11 -3 -20 -13 -20 -21 0 -13 -12 -19 -33 -15 -5 1 -6 -3 -3 -8 7 -11 -49
-73 -58 -64 -3 4 -6 1 -6 -4 0 -15 -67 -83 -74 -76 -3 4 -6 2 -6 -4 0 -14 -88
-103 -101 -103 -6 0 -8 -4 -4 -9 3 -5 -4 -12 -15 -16 -11 -3 -20 -13 -20 -21
0 -13 -12 -19 -33 -15 -5 1 -6 -3 -2 -8 6 -11 -71 -91 -87 -91 -5 0 -8 -3 -6
-7 2 -5 -28 -39 -66 -78 -39 -38 -66 -63 -62 -56 6 10 5 12 -2 7 -7 -4 -12
-12 -12 -17 0 -15 -26 -39 -34 -32 -3 4 -6 1 -6 -5 0 -15 -37 -52 -52 -52 -6
0 -9 -3 -6 -6 8 -7 -275 -292 -284 -287 -5 2 -8 0 -8 -5 0 -14 -148 -161 -154
-154 -3 3 -6 1 -6 -5 0 -14 -118 -133 -132 -133 -6 0 -9 -3 -5 -6 7 -8 -17
-34 -32 -34 -5 0 -13 -5 -17 -12 -5 -7 -3 -8 6 -3 7 4 -54 -59 -136 -142 -82
-82 -152 -148 -156 -146 -5 2 -8 0 -8 -5 0 -13 -88 -102 -101 -102 -6 0 -8 -4
-4 -9 3 -5 -4 -12 -15 -16 -11 -3 -20 -12 -20 -20 0 -8 -9 -17 -20 -20 -11 -3
-20 -10 -20 -14 0 -13 -127 -140 -134 -134 -3 4 -6 1 -6 -5 0 -13 -139 -152
-151 -152 -5 0 -9 -5 -9 -10 0 -14 -88 -100 -102 -100 -6 0 -9 -3 -5 -6 6 -6
-191 -204 -205 -204 -4 0 -8 -4 -8 -10 0 -12 -90 -100 -103 -100 -6 0 -8 -3
-5 -6 8 -7 -195 -212 -204 -207 -5 2 -8 0 -8 -5 0 -13 -88 -102 -101 -102 -6
0 -8 -4 -4 -9 3 -5 -4 -12 -15 -16 -11 -3 -20 -13 -20 -21 0 -13 -12 -19 -33
-15 -5 1 -6 -3 -2 -8 6 -11 -71 -91 -87 -91 -5 0 -8 -3 -6 -7 2 -5 -28 -39
-66 -78 -39 -38 -66 -63 -62 -56 6 10 5 12 -2 7 -7 -4 -12 -12 -12 -17 0 -15
-26 -39 -34 -32 -3 4 -6 1 -6 -5 0 -15 -37 -52 -52 -52 -6 0 -9 -3 -6 -6 6 -5
-57 -74 -67 -74 -2 0 -107 -102 -231 -227 -125 -126 -231 -227 -236 -225 -4 1
-7 -2 -6 -6 4 -12 -73 -87 -86 -84 -6 2 -8 0 -4 -4 9 -8 -131 -150 -144 -146
-4 1 -8 -8 -8 -20 0 -12 -2 -19 -5 -16 -3 3 -96 -85 -207 -196 -111 -110 -206
-200 -210 -198 -4 1 -8 -2 -8 -8 0 -13 -37 -50 -51 -50 -5 0 -7 -5 -4 -10 3
-6 -4 -14 -17 -19 -13 -6 -19 -10 -15 -10 4 -1 -7 -16 -25 -35 -18 -18 -36
-31 -41 -29 -4 2 -7 -1 -7 -6 0 -14 -82 -97 -92 -93 -5 1 -8 -2 -8 -6 0 -14
-41 -57 -51 -54 -5 1 -9 -2 -9 -8 0 -13 -37 -50 -51 -50 -5 0 -7 -4 -4 -10 3
-5 -5 -15 -19 -21 -14 -7 -23 -16 -20 -20 2 -4 -5 -13 -16 -19 -11 -6 -18 -15
-15 -19 4 -8 -22 -25 -35 -23 -3 0 -6 -8 -6 -19 0 -10 4 -19 8 -19 4 0 8 -6 8
-13 0 -6 16 -25 35 -41 19 -16 32 -34 28 -40 -3 -6 -3 -8 1 -4 10 9 56 -32 56
-50 0 -9 3 -12 6 -9 4 3 26 -14 49 -38 23 -25 47 -45 54 -45 7 0 10 -4 6 -9
-3 -6 4 -15 15 -21 12 -6 18 -16 14 -23 -4 -7 -4 -9 0 -5 5 4 74 -59 154 -140
81 -81 151 -145 157 -144 5 2 7 1 4 -3 -8 -7 74 -95 89 -95 7 0 11 -4 10 -8
-2 -5 21 -32 50 -59 28 -28 52 -57 52 -65 0 -10 3 -9 10 2 6 10 10 11 10 3 0
-15 97 -113 111 -113 5 0 9 -5 9 -12 0 -6 20 -30 45 -53 24 -23 41 -46 37 -50
-4 -3 -2 -6 3 -5 18 4 35 0 33 -7 -2 -5 18 -29 44 -55 26 -25 44 -49 40 -54
-4 -4 -2 -4 4 -1 6 4 26 -11 45 -33 18 -21 37 -36 41 -34 8 5 12 -11 8 -31 -1
-5 2 -7 5 -3 4 4 27 -13 50 -37 23 -25 47 -45 53 -45 7 0 12 -4 12 -9 0 -14
100 -116 111 -113 5 1 9 -3 9 -9 0 -13 147 -158 154 -152 2 3 7 -5 11 -16 3
-12 13 -21 21 -21 8 0 12 -4 9 -10 -3 -5 1 -10 10 -10 9 0 13 -4 10 -10 -3 -5
-3 -10 2 -10 16 0 73 -62 67 -72 -4 -7 -2 -8 4 -4 7 4 12 2 12 -4 0 -6 4 -9 9
-5 5 3 12 -4 16 -15 3 -11 13 -20 21 -20 8 0 14 -7 14 -16 0 -8 4 -12 10 -9 6
3 10 -1 10 -9 0 -8 9 -18 20 -21 11 -3 20 -9 20 -13 0 -11 79 -92 89 -92 5 0
12 -8 15 -18 4 -11 18 -25 31 -32 14 -7 25 -18 25 -23 0 -5 11 -18 25 -29 14
-11 22 -24 19 -30 -4 -6 -3 -8 3 -5 11 7 73 -49 73 -65 0 -5 5 -6 10 -3 6 3
10 -1 10 -10 0 -9 5 -13 10 -10 5 3 10 -1 10 -9 0 -8 9 -18 20 -21 11 -4 18
-10 15 -14 -2 -4 7 -14 20 -21 14 -7 25 -19 25 -27 0 -7 4 -13 8 -13 15 0 101
-93 95 -103 -3 -5 -1 -7 5 -3 6 3 19 -5 30 -19 11 -14 25 -25 31 -25 6 0 11
-4 11 -9 0 -11 58 -71 68 -71 5 0 15 -11 22 -25 7 -13 17 -22 21 -20 4 3 10
-4 14 -15 3 -11 13 -20 21 -20 8 0 12 -4 9 -10 -3 -5 1 -10 10 -10 9 0 14 -4
11 -8 -3 -5 6 -15 19 -22 14 -7 25 -16 25 -19 0 -10 79 -91 88 -91 5 0 15 -11
22 -25 7 -13 21 -27 32 -31 10 -3 18 -10 18 -15 0 -10 81 -89 92 -89 4 0 10
-9 13 -20 3 -11 13 -20 21 -20 8 0 12 -4 9 -10 -3 -5 1 -10 9 -10 9 0 16 -6
16 -14 0 -8 9 -18 20 -21 11 -4 18 -11 15 -16 -4 -5 -1 -9 5 -9 6 0 8 -5 4
-12 -4 -6 -3 -8 4 -4 9 6 92 -72 100 -95 2 -5 9 -9 16 -9 7 0 19 -11 26 -25 7
-13 17 -22 21 -20 4 3 10 -4 14 -15 3 -11 13 -20 21 -20 8 0 12 -4 9 -10 -3
-5 1 -10 10 -10 9 0 14 -4 11 -8 -3 -5 6 -15 19 -22 14 -7 25 -16 25 -19 0
-10 79 -91 88 -91 5 0 15 -11 22 -25 7 -13 21 -27 32 -31 10 -3 18 -10 18 -15
0 -10 81 -89 92 -89 4 0 10 -9 13 -20 3 -11 13 -20 21 -20 8 0 12 -4 9 -10 -3
-5 1 -10 9 -10 9 0 16 -6 16 -14 0 -8 9 -18 20 -21 11 -4 18 -11 15 -16 -4 -5
-1 -9 5 -9 6 0 8 -5 4 -12 -4 -6 -3 -8 4 -4 10 6 72 -51 72 -67 0 -5 5 -5 10
-2 6 3 10 -1 10 -10 0 -9 5 -13 10 -10 6 3 10 -1 10 -9 0 -8 9 -18 20 -21 11
-4 18 -10 15 -14 -2 -4 7 -14 20 -21 14 -7 25 -19 25 -26 0 -7 4 -14 9 -16 23
-8 101 -91 95 -100 -4 -7 -2 -8 4 -4 7 4 12 2 12 -4 0 -6 4 -9 9 -5 5 3 12 -4
16 -15 3 -11 13 -20 21 -20 8 0 14 -7 14 -16 0 -8 5 -12 10 -9 6 3 10 -1 10
-9 0 -8 9 -18 20 -21 11 -3 20 -9 20 -13 0 -11 79 -92 89 -92 5 0 13 -9 16
-20 3 -11 10 -20 14 -20 14 0 71 -63 65 -72 -3 -5 -2 -8 3 -7 20 3 34 -2 28
-11 -3 -5 1 -10 9 -10 9 0 15 -4 14 -9 -2 -5 1 -9 5 -10 4 0 22 -18 40 -40 18
-21 42 -45 55 -52 16 -9 19 -15 10 -21 -10 -6 -9 -8 3 -8 15 0 33 -14 81 -66
15 -16 34 -35 43 -42 8 -7 13 -18 9 -23 -3 -5 -2 -8 3 -7 12 4 54 -28 46 -35
-3 -4 1 -7 10 -7 10 0 17 -7 17 -16 0 -8 4 -13 8 -10 5 3 16 -8 26 -25 9 -16
24 -29 32 -29 8 0 12 -4 9 -10 -3 -5 1 -10 9 -10 9 0 16 -5 16 -11 0 -15 26
-39 34 -32 3 4 6 -1 6 -11 0 -9 4 -14 10 -11 5 3 10 -1 10 -9 0 -8 8 -17 18
-20 9 -3 26 -19 36 -35 11 -16 31 -36 45 -44 16 -10 20 -17 11 -17 -8 0 -1 -7
15 -16 17 -8 43 -32 59 -53 15 -21 39 -44 52 -51 12 -7 30 -27 38 -44 9 -17
16 -24 16 -16 0 10 6 6 17 -10 9 -14 37 -43 64 -65 26 -22 54 -53 63 -70 9
-16 16 -23 16 -15 0 9 6 6 17 -9 9 -13 30 -37 47 -52 59 -54 75 -73 70 -81 -3
-5 -2 -8 3 -7 20 3 34 -2 28 -11 -3 -5 1 -10 9 -10 9 0 16 -7 16 -16 0 -8 4
-13 9 -9 5 3 12 -4 16 -15 3 -11 10 -20 14 -20 14 0 71 -63 65 -72 -3 -5 -2
-8 3 -7 20 3 34 -2 28 -11 -3 -6 1 -10 9 -10 9 0 15 -6 13 -12 -1 -7 3 -12 10
-11 6 2 14 -6 18 -16 3 -10 17 -24 30 -31 14 -7 25 -18 25 -23 0 -5 11 -18 25
-29 14 -11 22 -24 19 -30 -4 -6 -3 -8 3 -5 9 6 27 -9 82 -69 15 -17 39 -38 52
-47 15 -11 18 -17 9 -17 -8 0 -1 -7 15 -16 17 -8 44 -33 60 -54 17 -22 36 -39
43 -40 6 0 12 -6 12 -14 0 -8 9 -18 20 -21 11 -4 18 -11 15 -16 -4 -5 -1 -9 5
-9 6 0 8 -5 5 -10 -4 -6 -3 -10 2 -9 21 4 32 -3 38 -21 3 -11 13 -20 21 -20 8
0 12 -5 9 -10 -3 -6 -2 -10 3 -10 16 0 72 -62 65 -73 -3 -6 -1 -7 5 -3 6 3 19
-5 30 -19 11 -14 25 -25 31 -25 6 0 11 -4 11 -9 0 -11 58 -71 68 -71 5 0 15
-11 22 -25 7 -13 17 -22 21 -20 4 3 10 -4 14 -15 3 -11 13 -20 21 -20 8 0 12
-4 9 -10 -3 -5 1 -10 10 -10 9 0 14 -4 11 -8 -3 -5 6 -15 19 -22 14 -7 25 -16
25 -19 0 -10 79 -91 88 -91 5 0 15 -11 22 -25 7 -13 21 -27 32 -31 10 -3 18
-10 18 -15 0 -5 19 -26 41 -47 23 -20 47 -43 53 -49 50 -56 67 -73 74 -73 5 0
15 -11 22 -25 7 -13 17 -22 22 -19 4 3 8 1 8 -3 0 -13 77 -93 89 -93 6 0 11
-5 11 -10 0 -6 36 -46 80 -89 44 -43 80 -85 80 -92 0 -11 2 -11 10 1 9 13 10
13 11 0 1 -8 1 -18 0 -22 0 -5 8 -8 19 -8 18 0 25 -10 21 -32 0 -5 3 -7 8 -5
5 1 32 -22 60 -51 28 -28 56 -52 62 -52 6 0 7 -5 4 -10 -3 -5 1 -10 9 -10 9 0
16 -4 16 -10 0 -13 60 -66 71 -63 5 2 9 -1 9 -5 0 -5 7 -9 15 -9 8 0 12 4 9 8
-2 5 7 14 20 21 14 7 25 18 26 23 1 6 7 9 14 9 9 -1 12 6 8 20 -5 19 -4 20 12
7 9 -8 16 -10 15 -5 -4 23 3 35 25 45 16 8 22 17 19 27 -4 10 -2 13 5 8 7 -4
12 -2 12 4 0 6 4 9 9 6 5 -3 11 4 14 15 3 12 10 18 17 14 7 -4 10 -1 8 8 -2 9
-1 15 2 15 17 -4 51 26 46 39 -4 11 -2 13 9 9 9 -3 15 0 15 9 0 8 9 19 20 25
11 6 17 16 14 22 -4 7 -3 8 4 4 7 -4 12 -2 12 4 0 7 6 10 14 7 9 -4 12 0 9 13
-3 13 0 18 13 17 10 -1 19 3 19 8 0 6 25 35 55 65 30 30 54 59 52 64 -2 5 6 6
17 3 14 -3 18 -1 14 10 -4 9 2 16 15 20 14 3 19 10 14 21 -5 15 -4 15 14 2 10
-8 16 -11 12 -6 -11 13 10 46 30 46 15 0 15 2 2 10 -13 8 -12 10 3 10 11 0 15
4 11 12 -5 7 -2 9 8 5 10 -3 19 3 27 19 10 22 22 29 45 25 5 -1 3 6 -5 15 -8
10 -9 15 -2 11 7 -5 17 1 23 13 6 12 17 19 25 17 9 -4 11 1 8 14 -3 11 -2 19
3 17 5 -2 28 16 52 40 26 26 47 40 55 35 7 -4 5 2 -3 12 -14 17 -13 18 6 13
16 -4 21 -1 20 11 0 9 6 15 15 15 11 -1 15 4 11 18 -2 10 -1 18 4 16 11 -4 60
44 56 55 -1 5 1 6 6 3 5 -3 18 2 28 10 10 9 14 13 7 10 -6 -4 -15 -1 -19 5 -4
8 -3 9 4 5 7 -4 12 -2 12 5 0 7 3 9 6 6 12 -12 46 14 40 30 -5 11 -1 14 13 10
15 -3 18 -1 14 11 -5 11 -3 13 7 7 10 -6 12 -4 7 8 -5 13 -1 17 15 17 12 0 19
3 15 6 -3 4 14 26 38 49 24 24 41 46 38 49 -4 3 1 6 10 6 9 0 21 9 27 20 6 11
16 17 22 14 8 -5 9 -1 4 12 -4 10 -4 15 0 11 4 -4 13 1 21 11 8 9 11 11 7 3
-5 -10 -3 -12 5 -7 7 5 10 15 6 24 -3 9 -3 13 1 9 4 -4 13 1 21 11 10 11 12
12 8 2 -4 -8 0 -6 9 4 8 10 13 23 10 27 -5 8 10 13 29 10 7 -1 11 15 8 32 0 4
4 7 9 7 13 0 56 43 53 52 -2 5 6 8 17 8 11 0 19 6 17 13 -1 6 4 11 12 9 9 -2
11 3 7 13 -3 9 -2 13 3 10 5 -3 12 4 16 15 3 11 9 19 13 19 18 -3 35 2 29 8
-4 3 5 17 19 30 14 12 20 23 15 23 -6 0 -8 7 -5 15 4 8 1 15 -6 15 -6 0 -8 5
-5 10 3 6 2 10 -4 10 -13 0 -121 110 -121 123 0 6 -2 8 -6 5 -6 -7 -154 141
-154 154 0 5 -5 6 -11 3 -6 -4 -13 2 -16 13 -2 11 -16 25 -29 32 -13 8 -24 20
-24 28 0 9 -2 13 -5 10 -7 -6 -112 94 -108 103 1 3 -9 11 -23 18 -14 6 -22 16
-19 21 3 6 2 10 -3 10 -12 0 -82 69 -82 80 0 4 -9 10 -21 13 -12 3 -18 10 -14
16 3 6 2 11 -4 11 -13 0 -200 188 -193 195 3 3 0 5 -5 5 -15 0 -83 67 -83 81
0 7 -3 10 -6 7 -7 -7 -54 39 -54 53 0 6 -4 8 -8 5 -4 -2 -18 9 -31 25 -13 16
-27 26 -32 23 -5 -3 -8 -2 -7 3 2 4 -5 19 -15 33 -9 13 -17 21 -17 16 0 -5 -9
3 -21 18 -11 14 -26 23 -32 19 -7 -3 -9 -3 -5 1 8 9 -51 72 -64 68 -5 -1 -7 1
-5 5 3 5 -1 17 -9 28 -8 10 -14 16 -14 12 0 -3 -13 6 -29 21 -15 15 -26 30
-24 35 2 4 -3 7 -11 7 -9 0 -16 8 -16 17 0 9 -3 13 -7 10 -3 -4 -19 9 -36 28
-16 19 -34 32 -40 28 -5 -3 -7 -2 -4 4 3 5 -11 26 -33 45 -21 20 -36 39 -33
42 4 3 1 6 -4 6 -15 0 -83 67 -83 81 0 7 -3 10 -6 6 -3 -3 -19 10 -36 29 -16
19 -35 31 -41 27 -5 -3 -7 -1 -4 4 4 6 -6 21 -22 34 -16 13 -27 27 -25 31 3 4
0 8 -6 8 -14 0 -99 88 -92 95 3 3 0 5 -5 5 -15 0 -83 67 -83 81 0 7 -3 9 -7 6
-3 -4 -13 2 -20 13 -8 11 -19 17 -25 14 -6 -4 -8 -2 -5 3 4 6 -8 25 -27 41
-19 17 -32 33 -29 36 6 6 -14 10 -32 6 -5 -1 -7 2 -3 5 4 4 -6 20 -22 35 -17
16 -30 32 -30 38 0 10 -29 26 -43 24 -4 -1 -6 2 -5 7 4 13 -59 71 -68 63 -4
-4 -4 -2 -1 5 4 6 -4 20 -18 31 -13 11 -21 23 -17 27 4 5 -1 5 -11 2 -10 -4
-16 -3 -13 2 3 5 -9 23 -28 39 -19 17 -32 33 -29 36 6 6 -14 10 -32 6 -5 -1
-7 1 -3 5 3 4 -7 19 -23 34 -16 15 -26 31 -22 34 3 4 1 7 -6 7 -16 0 -41 25
-41 40 0 6 -3 9 -7 7 -5 -2 -31 20 -59 49 -29 30 -49 54 -46 54 4 0 -5 8 -18
17 -14 10 -29 17 -33 15 -5 -1 -6 2 -3 7 3 5 -7 19 -23 32 -16 13 -27 27 -25
31 3 4 1 8 -5 8 -13 0 -100 88 -93 95 3 3 0 5 -5 5 -15 0 -83 67 -83 80 0 6
-3 10 -7 8 -10 -5 -112 100 -105 107 3 3 -1 5 -10 5 -8 0 -21 11 -28 25 -7 14
-20 25 -28 25 -7 0 -16 9 -19 20 -3 11 -9 20 -13 20 -11 0 -150 140 -150 151
0 5 -4 9 -9 9 -10 0 -152 140 -142 140 3 1 -7 8 -22 16 -15 8 -25 19 -22 24 4
6 2 10 -3 10 -11 0 -232 219 -232 230 0 4 -9 10 -20 13 -11 3 -20 12 -20 21 0
9 -4 16 -9 16 -12 0 -81 69 -81 82 0 5 -4 6 -10 3 -5 -3 -15 5 -21 19 -7 14
-15 24 -18 23 -9 -4 -109 101 -103 108 3 3 -1 5 -10 5 -8 0 -20 11 -28 24 -7
13 -21 27 -31 29 -11 3 -19 12 -19 21 0 9 -4 16 -9 16 -12 0 -150 138 -143
145 3 3 1 5 -5 5 -13 0 -113 98 -113 111 0 5 -4 9 -9 9 -11 0 -151 139 -151
150 0 4 -9 10 -20 13 -11 3 -20 12 -20 19 0 8 -11 21 -25 28 -14 7 -25 20 -25
28 0 9 -2 13 -5 10 -7 -7 -75 61 -75 75 0 6 -2 8 -5 5 -6 -6 -145 130 -145
142 0 4 -9 10 -20 13 -11 3 -20 12 -20 19 0 8 -11 21 -25 28 -14 7 -25 20 -25
28 0 9 -2 13 -5 10 -7 -6 -112 94 -108 103 1 3 -9 11 -23 18 -14 6 -22 16 -19
21 3 6 2 10 -3 10 -12 0 -82 69 -82 80 0 4 -9 10 -20 13 -11 3 -20 12 -20 21
0 9 -4 16 -10 16 -12 0 -110 100 -110 113 0 6 -2 8 -5 5 -6 -6 -145 130 -145
142 0 4 -9 10 -20 13 -11 3 -20 12 -20 19 0 8 -11 21 -25 28 -14 7 -25 20 -25
28 0 9 -2 13 -5 10 -7 -6 -112 94 -108 103 1 3 -9 11 -23 18 -14 6 -22 16 -19
21 3 6 2 10 -3 10 -12 0 -122 107 -122 119 0 5 -9 13 -20 16 -11 3 -21 11 -21
16 -1 5 -2 15 -3 22 -1 6 10 20 24 29 14 10 22 18 18 18 -4 0 3 11 15 23 12
13 24 23 27 23 3 -1 6 3 7 8 1 5 13 16 27 26 15 9 23 20 19 23 -3 4 1 7 10 7
10 0 17 7 17 16 0 8 4 13 9 9 5 -3 12 4 16 15 3 11 12 19 18 17 7 -1 11 4 9
11 -1 6 5 12 13 12 8 0 15 7 15 16 0 8 4 13 8 10 5 -3 15 6 22 19 7 13 16 23
19 22 3 -2 16 7 28 20 12 13 20 23 17 23 -3 0 12 15 35 34 22 18 38 36 36 38
-3 3 6 11 20 18 14 7 25 20 25 27 0 8 3 12 8 10 4 -2 17 7 29 20 12 13 20 23
18 23 -3 0 3 8 13 18 9 11 19 18 22 17 3 -1 15 9 27 22 12 13 19 23 15 23 -4
0 5 8 21 18 15 10 24 22 20 25 -3 4 1 7 10 7 10 0 17 7 17 16 0 8 5 12 10 9 6
-3 10 2 10 11 0 10 3 15 6 12 6 -7 52 34 47 43 -1 3 9 12 22 19 14 7 25 20 25
27 0 8 3 12 8 10 4 -2 17 7 29 20 12 13 20 23 18 23 -3 0 3 8 13 19 9 10 19
18 22 17 3 -1 5 3 5 7 0 5 11 15 25 22 14 8 21 14 16 15 -5 0 8 14 29 30 21
17 35 30 32 30 -3 0 6 13 21 28 15 15 29 27 32 27 3 -1 15 9 27 22 12 13 19
23 15 23 -4 0 5 8 21 18 15 10 24 22 20 25 -3 4 1 7 10 7 10 0 17 7 17 15 0 8
6 14 13 12 6 -1 11 3 10 10 -2 6 6 15 17 18 11 4 18 11 15 16 -4 5 1 9 9 9 9
0 16 8 16 17 0 9 3 13 7 10 3 -4 14 4 23 19 10 14 20 25 24 25 3 -1 6 2 5 5 0
4 11 14 26 24 15 10 26 20 26 24 -1 3 0 5 2 4 1 -1 22 19 47 46 25 26 51 53
58 59 7 7 29 29 49 49 20 21 40 35 44 32 5 -3 6 3 2 13 -3 10 -2 15 2 10 5 -4
17 5 27 20 10 16 18 25 18 22 0 -3 27 21 60 54 33 33 60 65 60 70 0 6 3 8 6 4
8 -7 34 17 34 32 0 6 3 10 8 8 4 -1 8 1 10 5 1 5 29 33 62 63 33 30 56 55 52
55 -4 0 5 8 21 18 15 10 24 22 20 27 -5 4 0 5 10 2 10 -4 16 -3 13 1 -7 12 68
84 78 75 4 -4 4 1 0 12 -4 11 -3 17 1 12 5 -4 17 5 27 20 10 16 18 25 18 22 0
-7 81 72 116 114 13 16 24 26 24 22 0 -3 6 0 14 7 8 7 12 16 9 21 -2 4 0 7 6
7 6 0 29 20 52 45 23 25 45 42 50 39 5 -3 6 3 2 13 -3 10 -2 15 2 10 5 -4 17
5 27 20 10 16 18 25 18 22 0 -7 81 72 116 114 13 16 24 26 24 22 0 -3 6 0 14
7 8 7 12 16 9 21 -2 4 0 7 5 7 5 0 36 27 69 60 33 33 57 60 54 60 -3 0 6 8 22
18 15 10 24 22 20 27 -5 4 0 5 10 2 10 -4 16 -3 13 2 -3 5 9 23 28 39 19 17
32 34 28 38 -4 4 1 4 11 1 10 -4 16 -3 13 2 -3 5 19 32 49 60 29 28 52 51 49
51 -3 0 16 18 41 40 25 22 43 40 38 40 -4 0 4 8 20 18 15 10 24 22 20 27 -5 4
0 5 10 2 10 -4 16 -3 13 2 -3 5 9 23 28 39 19 17 32 34 28 38 -4 4 1 4 11 1
10 -4 16 -3 13 2 -3 5 19 32 49 60 29 28 51 51 48 51 -3 0 7 10 23 23 16 12
32 21 36 20 4 -2 4 5 1 15 -3 9 -2 14 2 9 5 -4 17 5 27 20 10 16 18 25 18 22
0 -7 81 72 116 114 13 16 24 26 24 22 0 -3 6 0 14 7 8 7 12 16 9 21 -2 4 0 7
5 7 13 0 102 90 102 103 0 6 3 7 7 4 3 -4 15 5 25 20 10 16 18 25 18 22 0 -7
81 72 116 114 13 16 24 26 24 22 0 -3 6 0 14 7 8 7 12 16 9 21 -2 4 0 7 5 7 5
0 36 27 69 60 33 33 57 60 54 60 -3 0 6 8 22 18 15 10 24 22 20 25 -3 4 1 7
10 7 10 0 17 7 17 16 0 8 3 13 8 11 9 -4 52 40 44 47 -3 3 -1 6 5 6 5 0 35 25
65 55 30 30 53 55 51 55 -2 0 17 18 42 40 25 22 43 40 39 40 -4 0 6 10 22 22
16 13 31 26 32 30 2 5 8 6 13 3 5 -4 6 2 2 11 -4 11 -2 15 4 11 6 -4 14 0 17
9 3 8 11 12 17 8 7 -4 9 -3 6 3 -3 5 3 15 13 23 10 8 17 17 14 22 -3 4 0 8 5
8 16 0 51 32 45 42 -3 4 0 8 5 8 14 0 57 43 53 53 -1 4 2 7 6 7 15 0 52 37 45
44 -3 3 -1 6 5 6 17 0 52 32 46 42 -3 4 -1 8 5 8 14 0 131 118 131 132 0 6 3
9 6 5 8 -8 54 38 54 54 0 7 3 10 6 6 7 -7 94 80 94 95 0 6 3 9 6 5 8 -7 54 38
54 53 0 6 4 9 9 6 5 -3 12 1 15 10 3 8 11 12 17 8 7 -4 9 -3 6 3 -3 5 3 15 13
23 10 8 17 17 14 22 -3 4 0 8 5 8 16 0 51 32 45 42 -3 4 0 8 5 8 14 0 57 43
53 53 -1 4 2 7 8 7 13 0 50 37 50 51 0 5 4 8 8 5 10 -6 42 29 42 46 0 6 3 8 6
5 8 -7 44 31 44 45 0 5 5 6 10 3 6 -3 14 4 19 17 6 13 10 19 10 15 1 -12 51
41 51 54 0 7 2 10 6 7 7 -8 122 105 117 115 -2 4 1 7 7 7 6 0 18 6 26 14 8 8
14 20 14 26 0 6 4 9 9 6 5 -3 12 1 15 10 3 8 10 12 16 9 5 -3 10 3 10 14 0 12
4 21 10 21 13 0 79 67 72 74 -3 3 0 6 7 6 16 0 62 46 54 54 -4 3 1 6 10 6 10
0 17 7 17 16 0 8 3 13 8 11 4 -3 13 1 20 9 7 8 10 14 7 14 -3 0 -1 10 6 21 6
12 7 19 2 16 -10 -6 -34 19 -26 27 4 3 -1 6 -11 6 -9 0 -14 5 -11 10 3 6 -1
10 -10 10 -9 0 -13 5 -10 10 6 9 -8 15 -29 11 -5 -1 -6 5 -2 14 3 10 -1 18
-12 22 -22 9 -42 29 -42 42 0 6 -4 11 -8 11 -15 0 -52 36 -52 50 0 7 -3 11 -6
7 -7 -7 -54 38 -54 51 0 5 -8 16 -17 23 -11 10 -14 10 -9 2 4 -7 2 -13 -3 -13
-6 0 -11 9 -11 21 0 11 -4 17 -10 14 -6 -3 -10 4 -11 17 0 13 -3 17 -6 11 -6
-15 -33 8 -33 28 0 7 -3 10 -6 6 -7 -7 -54 38 -54 53 0 5 -6 9 -12 8 -7 -2
-12 2 -11 7 0 6 -5 16 -13 23 -8 7 -14 10 -14 7 0 -3 -6 0 -14 7 -8 7 -12 16
-9 21 2 4 -3 7 -12 7 -9 0 -13 5 -10 10 3 6 -1 10 -10 10 -9 0 -13 5 -10 10 3
6 -3 10 -14 10 -12 0 -21 5 -21 11 0 5 6 7 13 3 8 -5 8 -2 -2 9 -7 9 -20 17
-27 17 -8 0 -14 8 -14 17 0 9 -3 13 -6 10 -4 -4 -22 10 -41 31 -19 20 -40 36
-46 34 -5 -2 -4 5 4 14 9 12 9 15 2 10 -8 -4 -13 -2 -13 4 0 6 -3 9 -7 7 -5
-3 -13 1 -20 8 -10 11 -10 15 0 18 7 3 4 6 -6 6 -21 1 -49 26 -40 35 6 6 -12
10 -30 7 -5 -1 -6 3 -2 8 3 6 -3 16 -15 23 -11 7 -20 19 -20 27 0 8 -3 12 -6
8 -7 -7 -54 38 -54 53 0 9 -14 14 -32 11 -5 0 -7 2 -7 7 3 19 -2 33 -11 27 -6
-3 -10 4 -10 17 0 14 -3 19 -8 11 -5 -8 -13 -9 -22 -3 -10 6 -11 10 -3 10 7 0
-5 18 -26 40 -21 22 -43 40 -50 40 -7 0 -9 5 -6 10 3 6 2 10 -3 10 -5 0 -14
10 -21 23 -6 12 -9 14 -6 4 8 -28 -11 -11 -25 22 -8 21 -17 28 -31 26 -11 -2
-17 0 -14 5 3 5 -3 17 -14 27 -11 9 -17 21 -14 26 3 6 1 7 -5 3 -7 -4 -12 -2
-12 4 0 6 -4 8 -10 5 -9 -6 -15 8 -11 29 1 5 -5 3 -14 -4 -13 -11 -15 -10 -9
4 5 12 0 19 -15 23 -11 3 -18 9 -15 14 3 5 0 9 -6 9 -6 0 -8 5 -5 10 4 6 3 9
-2 8 -5 -2 -29 18 -55 44 -25 26 -48 44 -52 41 -3 -4 -6 1 -6 11 0 9 -4 15 -9
12 -11 -7 -23 22 -14 36 3 6 2 8 -4 5 -5 -4 -20 3 -32 14 -12 11 -27 17 -34
13 -7 -5 -5 0 3 11 9 11 10 16 2 11 -7 -4 -15 -1 -18 8 -3 9 -13 16 -21 16 -8
0 -11 5 -8 10 3 6 -1 10 -9 10 -9 0 -16 7 -16 16 0 10 -6 14 -14 11 -8 -3 -16
-2 -18 2 -2 4 -15 -5 -31 -21z m284 -215 c13 -16 12 -17 -3 -4 -17 13 -22 21
-14 21 2 0 10 -8 17 -17z"/>
<path d="M11896 15716 c3 -9 2 -16 -4 -16 -6 0 -8 -9 -5 -20 3 -13 0 -20 -8
-20 -12 0 -12 -2 -1 -9 8 -4 14 -12 14 -16 0 -4 -6 -12 -14 -16 -8 -5 -9 -9
-2 -9 7 0 15 -7 18 -16 5 -14 4 -15 -8 -5 -13 11 -14 9 -6 -18 6 -21 5 -31 -3
-35 -8 -3 -8 -5 1 -5 9 -1 10 -6 3 -20 -6 -10 -8 -21 -5 -23 2 -3 9 -20 14
-37 7 -26 6 -30 -3 -22 -18 14 -15 -36 3 -69 12 -23 12 -24 -3 -12 -14 12 -15
11 -7 -17 6 -22 5 -31 -3 -31 -9 0 -9 -2 0 -8 7 -4 9 -13 4 -21 -5 -7 -4 -25
2 -41 6 -15 7 -35 2 -46 -13 -30 -14 -44 -4 -50 6 -4 6 -11 -1 -19 -8 -10 -8
-15 0 -20 8 -5 8 -10 0 -20 -8 -9 -8 -15 0 -20 14 -9 13 -28 -2 -19 -10 5 -10
4 -1 -6 10 -11 9 -16 -5 -27 -15 -12 -15 -13 0 -7 14 5 16 0 14 -28 -2 -18 1
-38 6 -45 6 -7 4 -14 -3 -19 -8 -5 -9 -3 -4 6 6 9 4 11 -4 5 -9 -5 -10 -10 -2
-18 15 -15 14 -30 -1 -21 -10 6 -10 4 0 -8 10 -13 10 -17 0 -21 -10 -4 -10 -6
1 -6 11 -1 11 -4 0 -18 -10 -11 -10 -14 -1 -9 7 4 12 1 12 -9 0 -10 -5 -13
-12 -9 -10 6 -10 4 0 -8 10 -13 10 -17 0 -21 -10 -4 -10 -6 1 -6 11 -1 11 -4
0 -18 -10 -11 -10 -14 -1 -9 6 4 12 3 12 -1 0 -5 -6 -15 -12 -22 -10 -11 -10
-13 0 -7 14 9 17 -10 2 -19 -6 -4 -7 -12 -3 -18 13 -21 13 -47 0 -47 -9 0 -9
-2 1 -9 8 -4 14 -12 14 -16 0 -4 -6 -12 -14 -16 -9 -6 -9 -9 -1 -9 14 0 13
-62 -2 -72 -6 -5 -5 -8 4 -8 11 0 11 -3 0 -17 -10 -11 -10 -14 -1 -9 6 4 12 3
12 -3 0 -5 -5 -13 -11 -16 -7 -5 -4 -14 8 -28 10 -11 13 -17 7 -14 -7 4 -15 0
-18 -9 -3 -8 -2 -12 4 -9 6 3 10 2 10 -4 0 -5 -5 -13 -11 -16 -7 -5 -5 -13 6
-25 15 -16 15 -19 0 -34 -9 -9 -12 -16 -7 -16 5 0 9 -7 9 -15 0 -8 -5 -15 -11
-15 -7 0 -7 -3 0 -8 14 -9 13 -64 -1 -74 -6 -5 -5 -8 4 -8 11 0 11 -3 0 -17
-10 -11 -10 -14 -1 -9 6 4 12 3 12 -3 0 -5 -5 -13 -11 -16 -7 -5 -5 -13 6 -25
15 -16 15 -19 0 -34 -9 -9 -12 -16 -7 -16 5 0 9 -7 9 -15 0 -8 -5 -15 -11 -15
-7 0 -7 -3 0 -8 14 -9 13 -64 -1 -74 -6 -5 -5 -8 4 -8 11 0 11 -3 0 -17 -10
-11 -10 -14 -1 -9 6 4 12 3 12 -3 0 -5 -5 -13 -11 -16 -7 -5 -5 -13 6 -25 15
-16 15 -19 0 -34 -9 -9 -12 -16 -7 -16 5 0 9 -7 9 -15 0 -8 -5 -15 -11 -15 -7
0 -7 -3 0 -8 14 -9 13 -64 -1 -74 -6 -5 -5 -8 4 -8 11 0 11 -3 0 -17 -10 -11
-10 -14 -1 -9 6 4 12 3 12 -3 0 -5 -5 -13 -11 -16 -7 -5 -5 -13 6 -25 15 -16
15 -19 0 -34 -9 -9 -12 -16 -7 -16 5 0 9 -7 9 -15 0 -8 -5 -15 -11 -15 -7 0
-7 -3 0 -8 14 -9 13 -64 -1 -74 -6 -5 -5 -8 3 -8 6 0 12 -7 12 -15 0 -8 -6
-15 -12 -15 -10 0 -10 -2 0 -9 8 -4 14 -12 14 -16 0 -4 -6 -12 -14 -16 -9 -6
-9 -9 -1 -9 14 0 13 -62 -2 -72 -7 -5 -6 -8 0 -8 6 0 11 -9 12 -20 1 -11 -2
-18 -7 -15 -12 8 -6 -20 8 -38 10 -12 10 -18 -3 -31 -9 -9 -12 -16 -7 -16 12
0 10 -19 -2 -39 -6 -9 -5 -12 1 -8 6 4 13 0 17 -8 3 -8 1 -17 -5 -21 -6 -3 -8
-12 -5 -20 3 -8 0 -14 -6 -14 -7 0 -3 -7 8 -16 10 -8 14 -13 8 -10 -16 8 -25
-19 -11 -33 8 -8 7 -11 -3 -11 -9 0 -8 -5 6 -16 10 -8 13 -12 5 -8 -11 5 -13
3 -8 -9 4 -10 1 -17 -6 -17 -8 0 -6 -4 3 -10 8 -5 11 -10 6 -10 -5 0 -2 -8 5
-17 8 -10 9 -14 2 -10 -6 4 -14 3 -18 -3 -3 -5 -1 -10 6 -10 8 0 7 -5 -2 -17
-10 -11 -10 -14 -1 -9 13 8 18 -25 5 -38 -11 -10 -12 -37 -2 -30 13 7 11 -10
-2 -23 -8 -8 -7 -13 2 -18 8 -6 10 -4 4 5 -6 9 -4 11 4 6 9 -6 8 -13 -5 -27
-16 -18 -13 -23 11 -20 6 1 1 -6 -9 -14 -12 -9 -15 -15 -7 -15 11 0 11 -3 0
-17 -10 -11 -10 -14 -1 -9 6 4 12 3 12 -1 0 -5 -6 -15 -12 -22 -10 -11 -10
-13 0 -7 15 9 16 -6 1 -21 -8 -8 -7 -13 2 -18 8 -6 10 -4 4 5 -6 9 -4 11 4 6
9 -6 8 -13 -5 -27 -16 -18 -13 -23 11 -20 6 1 1 -6 -9 -14 -12 -9 -15 -15 -7
-15 11 0 11 -3 0 -17 -8 -10 -9 -14 -2 -10 8 5 11 0 10 -13 -1 -11 -6 -20 -12
-20 -6 0 -7 -3 0 -8 15 -11 17 -32 2 -32 -8 0 -8 -3 2 -9 13 -8 13 -12 0 -27
-9 -11 -9 -15 -1 -10 13 8 18 -25 5 -38 -10 -10 -13 -37 -3 -31 5 3 8 -4 7
-15 -1 -11 -6 -20 -11 -20 -5 0 -1 -7 10 -16 10 -8 14 -13 8 -10 -14 7 -27
-21 -14 -29 6 -4 10 -11 10 -16 0 -6 -6 -7 -12 -3 -10 6 -10 4 0 -8 8 -10 9
-17 2 -20 -7 -2 -7 -14 -1 -35 7 -22 6 -33 -2 -37 -8 -3 -8 -5 1 -5 9 -1 10
-6 3 -20 -7 -13 -6 -24 3 -37 16 -21 10 -47 -8 -37 -6 3 -2 -4 9 -17 11 -13
15 -20 8 -17 -6 4 -14 3 -18 -3 -3 -5 -1 -10 5 -10 7 0 10 -6 7 -12 -2 -7 -10
-12 -17 -10 -10 2 -11 -1 -3 -10 16 -21 22 -57 9 -62 -7 -3 -6 -5 3 -5 11 -1
11 -4 0 -18 -10 -11 -10 -14 -1 -9 15 9 16 -6 1 -21 -8 -8 -7 -13 2 -18 8 -6
10 -4 4 5 -6 9 -4 11 4 6 9 -6 8 -13 -5 -27 -16 -18 -13 -23 11 -20 6 1 1 -6
-9 -14 -12 -9 -15 -15 -7 -15 11 0 11 -3 0 -17 -10 -11 -10 -14 -1 -9 6 4 12
3 12 -1 0 -5 -6 -15 -12 -22 -10 -11 -10 -13 0 -7 15 9 16 -6 1 -21 -8 -8 -7
-13 2 -18 8 -6 10 -4 4 5 -6 9 -4 11 4 6 9 -6 8 -13 -5 -27 -16 -18 -13 -23
11 -20 6 1 1 -6 -9 -14 -12 -9 -15 -15 -7 -15 11 0 11 -3 0 -17 -10 -11 -10
-14 -1 -9 6 4 12 3 12 -1 0 -5 -6 -15 -12 -22 -10 -11 -10 -13 0 -7 15 9 16
-6 1 -21 -8 -8 -7 -13 2 -18 8 -6 10 -4 4 5 -6 9 -4 11 4 6 9 -6 8 -13 -5 -27
-16 -18 -13 -23 11 -20 6 1 1 -6 -9 -14 -12 -9 -15 -15 -7 -15 11 0 11 -3 0
-17 -10 -11 -10 -14 -1 -9 6 4 12 3 12 -1 0 -5 -6 -15 -12 -22 -10 -11 -10
-13 0 -7 15 9 16 -6 1 -21 -8 -8 -7 -13 2 -18 8 -6 10 -4 4 5 -6 9 -4 11 4 6
9 -6 8 -13 -5 -27 -16 -18 -13 -23 11 -20 6 1 1 -6 -9 -14 -12 -9 -15 -15 -7
-15 11 0 11 -3 0 -17 -8 -10 -9 -14 -2 -10 8 5 11 0 10 -13 -1 -11 -6 -20 -12
-20 -6 0 -7 -3 0 -8 15 -11 17 -32 2 -32 -8 0 -8 -3 2 -9 13 -8 13 -12 0 -27
-9 -11 -9 -15 -1 -10 13 8 18 -25 5 -38 -10 -10 -13 -37 -3 -31 5 3 8 -4 7
-15 -1 -11 -6 -20 -11 -20 -5 0 -1 -7 10 -16 10 -8 14 -13 8 -10 -14 7 -27
-21 -14 -29 6 -4 10 -11 10 -16 0 -6 -6 -7 -12 -3 -10 6 -10 4 0 -8 8 -10 9
-17 2 -20 -7 -2 -7 -14 -1 -35 7 -22 6 -33 -2 -37 -8 -3 -8 -5 1 -5 9 -1 10
-6 3 -20 -7 -13 -6 -24 3 -37 16 -21 10 -47 -8 -37 -6 3 -2 -4 9 -17 11 -13
15 -20 8 -17 -6 4 -14 3 -18 -3 -3 -5 -1 -10 5 -10 7 0 10 -6 7 -12 -2 -7 -10
-12 -17 -10 -10 2 -11 -1 -3 -10 16 -21 22 -57 9 -62 -7 -3 -6 -5 3 -5 11 -1
11 -4 0 -18 -10 -11 -10 -14 -1 -9 15 9 16 -6 1 -21 -8 -8 -7 -13 2 -18 8 -6
10 -4 4 5 -6 9 -4 11 4 6 9 -6 8 -13 -5 -27 -16 -18 -13 -23 11 -20 6 1 1 -6
-9 -14 -12 -9 -15 -15 -7 -15 11 0 11 -3 0 -17 -10 -11 -10 -14 -1 -9 6 4 12
3 12 -1 0 -5 -6 -15 -12 -22 -10 -11 -10 -13 0 -7 15 9 16 -6 1 -21 -8 -8 -7
-13 2 -18 8 -6 10 -4 4 5 -6 9 -4 11 4 6 9 -6 8 -13 -5 -27 -16 -18 -13 -23
11 -20 6 1 1 -6 -9 -14 -12 -9 -15 -15 -7 -15 11 0 11 -3 0 -17 -10 -11 -10
-14 -1 -9 6 4 12 3 12 -1 0 -5 -6 -15 -12 -22 -10 -11 -10 -13 0 -7 15 9 16
-6 1 -21 -8 -8 -7 -13 2 -18 8 -6 10 -4 4 5 -6 9 -4 11 4 6 9 -6 8 -13 -5 -27
-16 -18 -13 -23 11 -20 6 1 1 -6 -9 -14 -12 -9 -15 -15 -7 -15 11 0 11 -3 0
-17 -10 -11 -10 -14 -1 -9 6 4 12 3 12 -3 0 -5 -4 -13 -10 -16 -6 -4 -5 -13 3
-26 10 -16 9 -21 -3 -29 -12 -8 -12 -10 -1 -10 11 0 11 -3 0 -16 -10 -13 -10
-17 2 -25 12 -8 12 -10 -1 -19 -11 -7 -11 -10 -2 -10 10 0 10 -5 1 -21 -6 -12
-7 -19 -2 -16 5 4 9 -11 9 -32 -1 -23 -5 -37 -11 -34 -5 3 -4 0 3 -8 13 -14
17 -33 4 -25 -4 2 -8 -13 -7 -35 0 -27 4 -38 13 -34 8 3 7 -4 -4 -20 -15 -24
-15 -25 2 -25 16 0 17 -2 4 -10 -8 -5 -10 -10 -5 -10 6 0 3 -5 -5 -10 -13 -9
-13 -10 0 -10 13 0 13 -1 0 -10 -12 -8 -12 -10 -1 -10 9 0 10 -4 4 -12 -12
-16 -13 -49 -1 -42 12 8 10 -10 -3 -23 -8 -8 -8 -13 1 -18 8 -5 6 -13 -7 -27
-9 -11 -13 -19 -8 -18 30 6 38 -1 19 -16 -10 -8 -13 -13 -6 -9 15 8 16 -11 1
-21 -8 -4 -7 -9 2 -15 11 -7 11 -9 -1 -9 -13 0 -13 -1 0 -10 11 -7 11 -10 2
-10 -7 0 -10 -5 -7 -10 4 -6 12 -8 18 -4 7 3 4 -1 -6 -9 -18 -15 -18 -16 0
-26 17 -10 17 -10 -2 -11 -15 0 -17 -2 -7 -9 8 -4 14 -12 14 -16 0 -4 -6 -12
-14 -16 -7 -5 -8 -9 -2 -9 12 0 12 -29 0 -48 -4 -8 -1 -12 11 -13 16 0 16 -1
-2 -9 -11 -5 -14 -9 -7 -9 6 -1 12 -5 12 -11 0 -5 -8 -7 -17 -4 -15 5 -15 4
-4 -4 17 -12 24 -42 10 -42 -5 0 -9 -5 -9 -11 0 -5 5 -7 10 -4 12 7 7 -36 -6
-57 -5 -8 -1 -9 12 -5 18 7 18 7 0 -8 -14 -11 -16 -15 -5 -15 8 0 10 -3 4 -8
-12 -8 -13 -22 -2 -39 4 -6 1 -14 -5 -16 -10 -4 -10 -6 0 -6 9 -1 10 -6 3 -20
-6 -10 -7 -21 -3 -25 3 -4 0 -11 -8 -16 -12 -8 -9 -10 10 -11 14 0 20 -3 13
-5 -7 -3 -9 -12 -6 -20 4 -10 0 -13 -13 -8 -16 5 -16 4 -4 -5 18 -12 20 -33 5
-43 -7 -5 -7 -8 0 -8 12 0 12 -40 0 -60 -6 -10 -4 -12 11 -7 18 7 18 7 0 -8
-14 -11 -16 -15 -5 -15 12 0 12 -2 -1 -10 -10 -6 -11 -10 -2 -10 6 0 12 -5 12
-11 0 -5 -6 -7 -12 -3 -10 6 -10 4 0 -8 10 -13 10 -17 0 -21 -11 -4 -11 -6 0
-6 10 -1 10 -6 1 -22 -8 -15 -8 -19 0 -15 6 4 11 3 11 -3 0 -5 -5 -13 -10 -16
-6 -4 -8 -11 -4 -16 3 -5 10 -6 16 -3 7 4 8 2 4 -5 -4 -6 -2 -18 4 -26 15 -17
30 -20 30 -4 0 5 -5 7 -12 3 -7 -4 -8 -3 -4 4 9 14 38 3 30 -12 -3 -6 2 -2 10
8 16 20 16 20 16 0 0 -12 3 -15 8 -7 5 7 13 9 21 3 8 -4 24 -4 37 0 14 6 26 5
29 0 4 -7 13 -6 26 0 14 8 19 7 20 -2 0 -7 4 -4 9 7 5 11 9 14 9 6 1 -8 8 -11
20 -8 11 3 30 -2 42 -11 12 -8 20 -11 17 -6 -4 5 5 14 18 21 17 8 26 8 31 1 4
-7 1 -8 -7 -3 -8 5 -11 4 -6 -3 7 -12 37 -5 48 12 5 8 8 8 8 0 0 -7 7 -15 16
-18 11 -4 15 -2 11 8 -4 10 -1 13 8 9 8 -3 12 -10 8 -17 -3 -6 3 -3 14 7 18
15 22 16 32 3 9 -11 19 -12 35 -6 13 5 29 4 40 -2 15 -8 17 -8 11 2 -6 10 -3
12 10 7 9 -4 25 -2 33 5 13 11 15 10 9 -4 -5 -15 -2 -16 19 -8 31 12 37 12 30
2 -2 -4 23 -6 57 -4 34 2 65 9 69 15 5 8 8 5 8 -8 0 -15 2 -17 9 -6 6 10 10
10 16 1 5 -8 11 -6 22 7 8 10 11 12 7 4 -5 -10 -3 -13 8 -9 8 4 21 2 28 -2 8
-5 21 -5 30 0 9 5 22 5 30 0 10 -6 23 -4 36 5 16 10 24 11 33 2 9 -9 17 -8 33
2 18 11 20 11 15 -1 -4 -11 4 -13 36 -11 23 2 45 9 49 16 6 9 8 9 8 0 0 -7 14
-12 33 -12 17 1 44 -1 60 -4 20 -3 27 0 27 11 0 13 3 12 15 -4 10 -13 14 -14
15 -5 0 11 3 11 17 0 15 -12 16 -12 10 3 -4 12 -2 15 8 11 8 -3 13 -8 10 -12
-2 -4 3 -8 11 -8 8 0 13 6 10 13 -3 8 0 11 9 7 8 -3 13 -9 10 -13 -3 -5 4 -6
15 -3 11 3 17 10 13 17 -3 6 3 2 15 -8 12 -11 22 -15 22 -10 0 5 13 9 29 10
22 1 28 -3 24 -15 -4 -14 -3 -14 6 1 7 10 19 14 31 11 13 -3 20 0 21 8 0 8 4
5 9 -6 6 -13 9 -15 9 -5 1 13 2 13 11 0 7 -11 10 -11 10 -2 0 10 5 10 22 1 18
-10 20 -9 14 7 -6 18 -5 18 9 0 8 -11 15 -14 15 -8 0 10 5 10 20 2 14 -7 20
-7 20 0 0 5 5 10 11 10 5 0 8 -3 5 -8 -5 -8 97 -7 120 2 8 3 14 0 14 -6 0 -7
7 -3 15 8 10 13 13 14 10 3 -4 -10 0 -16 9 -16 8 0 13 4 10 9 -3 4 -1 8 5 8 5
0 12 -6 14 -12 4 -10 6 -10 6 0 1 7 6 10 12 6 21 -12 54 -10 67 6 8 8 11 10 8
3 -4 -6 -2 -14 4 -18 5 -3 10 -2 10 4 0 5 11 6 27 2 14 -4 48 -4 74 -1 29 4
53 2 59 -4 7 -7 10 -6 10 3 0 11 3 11 17 0 15 -12 16 -12 10 3 -4 12 -2 15 8
11 8 -3 12 -9 9 -14 -3 -5 6 -4 20 2 19 9 23 15 15 25 -7 8 -6 14 2 20 8 5 9
3 4 -6 -5 -9 -4 -11 3 -6 9 5 7 15 -6 34 -11 17 -12 23 -3 18 10 -7 12 -3 6
14 -6 17 -4 21 6 14 10 -6 10 -3 -1 11 -16 19 -15 52 1 72 7 7 6 14 -2 19 -8
5 -9 3 -4 -6 5 -9 4 -11 -4 -6 -8 5 -7 13 3 28 13 18 13 23 0 35 -11 12 -12
18 -3 29 6 8 8 14 3 14 -4 0 -3 5 3 11 9 9 8 15 -3 26 -13 14 -13 18 2 40 9
14 11 22 5 19 -6 -4 -11 -4 -12 1 -6 57 -4 62 11 50 10 -9 9 -4 -4 17 -10 16
-13 25 -6 21 9 -5 10 -1 5 15 -5 14 -3 20 3 16 12 -7 10 20 -3 31 -4 4 -5 2 0
-6 6 -10 4 -12 -4 -7 -8 6 -9 12 -2 20 6 7 8 16 4 19 -3 4 -1 7 6 7 9 0 8 4
-3 15 -11 11 -12 23 -6 45 5 18 5 32 -1 36 -5 3 -3 14 5 26 13 18 13 23 0 35
-11 12 -12 18 -3 29 6 8 8 14 3 14 -4 0 -3 5 3 11 9 9 8 15 -3 26 -13 14 -13
18 2 40 9 14 11 22 5 19 -6 -4 -11 -4 -12 1 -6 57 -4 62 11 50 10 -9 9 -4 -4
17 -10 16 -13 25 -6 21 9 -5 10 -1 5 15 -5 15 -4 20 4 16 6 -4 11 -3 11 2 0 6
-7 13 -16 16 -9 3 -12 11 -8 18 11 17 12 48 3 53 -8 6 0 45 13 62 6 7 4 14 -3
19 -8 5 -9 3 -4 -6 5 -9 4 -11 -4 -6 -8 5 -7 13 3 28 13 18 13 23 0 36 -13 13
-13 17 3 35 10 11 12 17 4 12 -11 -6 -13 -2 -9 19 3 15 1 26 -6 26 -6 0 -4 5
4 10 8 5 11 10 6 10 -5 0 -2 8 5 17 10 11 10 14 2 9 -12 -7 -18 7 -13 29 6 25
5 61 -3 72 -4 6 -3 14 3 18 7 4 7 13 -1 27 -7 13 -7 18 -1 14 11 -7 10 39 0
50 -4 3 -2 19 2 35 5 17 5 31 -1 35 -7 4 -6 10 0 18 10 12 9 61 -1 72 -4 3 -2
19 2 35 5 17 5 31 -1 35 -5 3 -3 14 5 26 13 18 13 23 0 36 -13 13 -13 17 3 35
10 11 12 17 4 12 -11 -6 -13 -2 -9 19 3 15 1 26 -6 26 -6 0 -4 5 4 10 8 5 11
10 6 10 -5 0 -2 8 5 17 10 11 10 14 2 9 -7 -4 -13 -4 -14 1 -6 57 -4 62 11 50
10 -9 9 -4 -4 17 -10 16 -13 25 -6 21 9 -5 10 -1 5 15 -5 14 -3 20 3 16 12 -7
10 20 -3 31 -4 4 -5 2 0 -6 6 -10 4 -12 -4 -7 -8 6 -9 12 -2 20 6 7 8 16 4 19
-3 4 -1 7 6 7 9 0 8 4 -3 15 -10 10 -12 24 -8 43 4 15 7 39 6 55 0 15 3 27 8
27 5 0 2 7 -7 16 -15 15 -15 18 2 37 10 11 12 17 4 12 -11 -6 -13 -2 -9 19 3
15 1 26 -6 26 -6 0 -4 5 4 10 8 5 11 10 6 10 -5 0 -2 8 5 17 8 9 9 14 3 10
-19 -11 -24 19 -7 44 10 13 11 19 4 15 -9 -6 -12 -2 -10 10 2 11 0 24 -4 31
-4 6 -2 15 4 19 8 5 9 3 4 -7 -6 -11 -5 -11 5 -2 10 9 10 15 -4 28 -18 19 -21
29 -5 19 8 -4 9 1 4 16 -5 17 -4 21 6 15 8 -5 7 0 -2 10 -12 12 -15 26 -10 44
3 14 6 38 5 54 0 15 3 27 8 27 5 0 2 7 -7 16 -15 15 -15 18 2 37 10 11 12 17
4 12 -11 -6 -13 -2 -9 19 3 15 1 26 -6 26 -6 0 -4 5 4 10 8 5 11 10 6 10 -5 0
-2 8 5 17 10 11 10 14 2 9 -7 -4 -13 -4 -14 1 -6 57 -4 62 11 50 10 -9 9 -4
-4 17 -10 16 -13 25 -6 21 9 -5 10 -1 5 15 -5 15 -4 20 4 16 6 -4 11 -3 11 2
0 6 -7 13 -16 16 -9 3 -12 11 -8 18 11 17 12 48 3 53 -8 6 0 45 13 62 6 7 4
14 -3 19 -8 5 -9 3 -4 -6 5 -9 4 -11 -4 -6 -7 5 -9 12 -3 19 14 18 23 49 13
43 -5 -3 -11 1 -15 9 -3 8 -1 17 5 21 6 4 6 11 -2 20 -7 9 -8 14 -3 13 21 -4
24 2 10 17 -11 11 -13 21 -7 33 6 10 6 23 1 31 -5 8 -6 21 -2 29 9 20 8 53 -1
68 -4 6 -3 14 3 18 7 4 6 13 -1 27 -7 13 -7 18 -1 14 11 -7 10 39 0 50 -4 3
-2 19 2 35 5 17 5 31 -1 35 -5 3 -3 14 5 26 13 18 13 23 0 36 -13 13 -13 17 3
35 10 11 12 17 4 12 -11 -6 -13 -2 -9 19 3 15 1 26 -6 26 -6 0 -4 5 4 10 8 5
11 10 6 10 -5 0 -2 8 5 17 10 11 10 14 2 9 -7 -4 -13 -4 -14 1 -5 53 -4 60 11
55 11 -4 9 1 -5 18 -11 13 -14 20 -6 15 10 -6 12 -2 6 15 -5 15 -4 20 4 16 6
-4 11 -3 11 2 0 6 -7 13 -16 16 -12 5 -14 10 -5 20 6 7 8 16 4 19 -3 4 -1 7 6
7 9 0 8 4 -3 15 -10 10 -12 24 -8 43 9 34 8 75 -3 92 -5 8 -4 11 3 6 6 -3 13
-2 17 4 3 5 1 10 -6 10 -8 0 -7 5 2 16 12 15 11 16 -11 10 -21 -6 -22 -5 -7 4
19 12 24 35 5 24 -9 -6 -9 -3 0 9 15 17 24 70 12 62 -5 -3 -11 2 -14 11 -3 8
-2 12 3 9 5 -3 12 -1 16 5 3 5 1 10 -6 10 -8 0 -7 5 2 16 12 15 11 16 -11 10
-21 -6 -22 -5 -7 4 9 6 17 16 17 21 0 6 -5 7 -12 3 -6 -4 -4 3 5 16 12 18 13
27 4 47 -9 19 -8 26 4 34 8 5 9 9 4 9 -6 0 -11 9 -12 20 -1 11 2 18 7 15 6 -3
7 1 4 9 -3 9 -11 13 -17 9 -6 -3 -3 4 6 17 11 16 13 28 7 41 -7 12 -6 19 3 22
9 4 9 6 0 6 -7 1 -13 8 -13 17 0 9 5 12 11 8 7 -4 10 -1 7 7 -3 8 -11 13 -17
12 -6 -2 -11 2 -11 7 0 6 5 10 10 10 6 0 10 5 10 11 0 5 -5 7 -11 3 -6 -3 -4
5 5 18 9 14 14 27 11 30 -13 13 -15 61 -3 76 11 13 10 15 -4 9 -10 -3 -18 -2
-18 3 0 6 5 10 10 10 6 0 10 5 10 11 0 5 -5 7 -12 3 -6 -4 -4 3 5 16 11 16 13
28 7 41 -7 12 -6 19 3 22 9 4 9 6 0 6 -7 1 -13 8 -13 17 0 9 5 12 11 8 7 -4
10 -1 7 7 -3 8 -11 13 -17 11 -6 -1 -11 2 -11 8 0 5 5 10 10 10 6 0 10 5 10
11 0 5 -5 7 -12 3 -6 -4 -4 3 5 16 14 21 15 26 1 53 -9 16 -11 26 -6 23 6 -4
13 -2 17 4 3 5 1 10 -6 10 -8 0 -7 5 2 17 12 14 12 15 0 9 -10 -7 -12 -3 -6
14 5 17 4 21 -6 15 -7 -5 -6 1 4 15 11 16 13 28 7 41 -7 12 -6 19 3 22 9 4 9
6 0 6 -7 1 -13 8 -13 17 0 9 5 12 11 8 7 -4 10 -1 7 7 -3 8 -11 13 -17 11 -6
-1 -11 2 -11 8 0 5 5 10 10 10 6 0 10 5 10 11 0 5 -5 7 -11 3 -6 -3 -4 5 5 18
9 14 14 27 11 30 -11 11 -14 48 -4 48 6 0 4 7 -5 15 -10 10 -12 24 -8 43 4 15
7 39 6 55 0 15 3 27 8 27 5 0 2 7 -7 16 -12 12 -13 19 -4 30 6 8 8 14 4 14 -4
0 -2 7 5 15 9 11 9 15 1 15 -7 0 -11 14 -11 33 1 17 -1 46 -3 64 -3 28 -1 31
12 20 12 -9 11 -4 -3 17 -10 16 -13 25 -6 21 9 -5 10 -1 5 15 -5 14 -3 20 3
16 12 -7 10 20 -3 31 -4 4 -5 2 0 -6 6 -10 4 -12 -4 -7 -8 6 -9 12 -2 20 6 7
8 16 4 19 -3 4 -1 7 6 7 9 0 8 4 -3 15 -10 10 -12 24 -8 43 4 15 7 39 6 55 0
15 3 27 8 27 5 0 2 7 -7 16 -15 15 -15 18 2 37 10 11 12 17 4 12 -11 -6 -13
-2 -9 19 3 15 1 26 -6 26 -6 0 -4 5 4 10 8 5 11 10 6 10 -5 0 -2 8 5 17 8 9 9
14 3 10 -19 -11 -24 19 -7 44 10 13 11 19 4 15 -9 -6 -12 -2 -10 10 2 11 0 24
-4 31 -4 6 -2 15 4 19 8 5 9 3 4 -7 -6 -11 -5 -11 5 -2 10 9 10 15 -4 28 -18
19 -21 29 -5 19 8 -4 9 1 4 16 -6 17 -4 21 6 15 8 -5 6 1 -4 12 -9 11 -15 22
-12 25 3 3 7 25 8 49 1 24 6 49 10 56 4 6 2 15 -4 19 -8 5 -9 3 -4 -6 5 -9 4
-11 -4 -6 -9 6 -9 11 -1 21 7 8 7 15 1 19 -5 3 -7 15 -4 26 3 11 10 17 17 13
6 -4 5 1 -3 10 -9 12 -10 17 -2 17 7 0 9 5 6 10 -4 6 -12 7 -19 3 -7 -4 -3 0
7 10 11 9 14 17 8 17 -6 0 -11 5 -11 11 0 5 6 7 13 3 10 -6 10 -4 0 7 -7 7
-13 19 -13 27 0 8 5 10 13 6 10 -6 10 -4 0 7 -7 7 -13 17 -13 22 0 4 6 5 13 1
6 -4 4 2 -6 13 -14 16 -15 23 -6 29 8 4 10 3 5 -4 -4 -7 -2 -12 3 -12 16 0 13
11 -6 33 -10 11 -12 17 -5 13 9 -5 11 2 6 29 -4 29 -3 35 8 29 10 -6 11 -5 1
7 -10 12 -10 18 -1 27 16 16 -4 15 -22 0 -8 -7 -4 -1 9 15 23 25 23 27 5 27
-14 0 -16 2 -5 9 8 5 11 16 6 30 -3 12 -11 19 -16 16 -5 -4 -9 -1 -9 5 0 6 -4
8 -10 5 -5 -3 -10 0 -10 7 0 10 -2 10 -9 -1 -6 -9 -10 -10 -16 -2 -5 9 -10 9
-20 1 -10 -8 -14 -7 -17 2 -4 10 -8 10 -21 -1 -14 -11 -17 -11 -17 0 0 11 -2
11 -10 -1 -8 -13 -10 -13 -10 -1 0 11 -4 9 -15 -5 -8 -10 -15 -14 -14 -9 3 24
-2 27 -17 9 -8 -10 -13 -14 -10 -7 4 6 2 14 -4 18 -5 3 -10 1 -10 -4 0 -6 -5
-11 -11 -11 -5 0 -7 6 -3 13 6 9 5 9 -7 0 -8 -6 -18 -11 -24 -11 -5 0 -16 5
-24 11 -12 9 -13 9 -7 0 4 -7 3 -13 -3 -13 -5 0 -12 4 -15 9 -7 10 -25 9 -43
-2 -8 -5 -13 -3 -13 5 0 9 -3 9 -10 -2 -8 -13 -10 -13 -10 -1 0 11 -4 9 -15
-5 -8 -10 -15 -14 -14 -9 3 24 -2 27 -17 9 -8 -10 -13 -14 -10 -7 4 6 2 14 -4
18 -5 3 -10 1 -10 -4 0 -6 -5 -11 -11 -11 -5 0 -7 6 -3 13 6 9 4 9 -7 1 -16
-12 -29 -12 -48 0 -10 6 -12 5 -7 -2 4 -7 3 -12 -3 -12 -5 0 -13 5 -16 10 -4
6 -12 7 -18 3 -17 -11 -31 -10 -39 2 -5 6 -8 5 -8 -3 0 -8 -5 -10 -12 -6 -24
15 -49 12 -43 -5 5 -12 2 -11 -14 3 -14 12 -21 14 -26 6 -6 -9 -10 -9 -15 1
-7 10 -11 10 -24 0 -13 -11 -16 -11 -16 0 0 11 -2 11 -10 -1 -8 -13 -10 -13
-10 -1 0 11 -4 10 -16 -5 -8 -10 -13 -14 -10 -7 4 6 2 14 -4 18 -5 3 -10 1
-10 -6 0 -7 -4 -8 -12 -2 -12 8 -30 10 -43 3 -14 -7 -31 -5 -44 4 -11 8 -13 8
-7 -1 4 -7 3 -13 -3 -13 -5 0 -12 4 -15 9 -7 10 -25 9 -43 -2 -6 -4 -14 -1
-16 5 -4 10 -6 10 -6 0 -1 -8 -6 -10 -13 -5 -20 12 -38 12 -38 1 0 -7 -5 -7
-12 -1 -12 8 -30 10 -43 3 -14 -7 -31 -5 -44 4 -11 8 -13 8 -7 -1 4 -7 3 -13
-3 -13 -5 0 -13 5 -16 10 -5 8 -11 8 -20 0 -10 -8 -15 -8 -20 0 -5 8 -10 8
-20 0 -10 -8 -15 -8 -20 0 -5 8 -11 8 -21 -1 -11 -9 -14 -8 -14 2 0 12 -2 12
-9 0 -6 -9 -10 -10 -16 -2 -5 9 -10 9 -20 1 -10 -8 -14 -7 -17 2 -4 10 -8 10
-21 -1 -14 -11 -17 -11 -17 0 0 11 -2 11 -10 -1 -8 -13 -10 -13 -10 -1 0 11
-4 10 -16 -5 -8 -10 -13 -14 -10 -7 4 6 2 14 -4 18 -5 3 -10 1 -10 -5 0 -6 -5
-8 -12 -3 -19 11 -37 12 -44 2 -3 -5 -12 -9 -20 -9 -8 0 -13 4 -10 8 3 5 -1 9
-9 9 -8 0 -12 -4 -9 -9 3 -4 1 -8 -5 -8 -5 0 -13 5 -16 10 -5 8 -11 7 -21 -1
-11 -9 -14 -8 -14 2 0 10 -2 11 -8 2 -8 -13 -29 -12 -51 2 -10 5 -16 4 -19 -3
-2 -7 -9 -9 -15 -5 -18 11 -36 12 -43 2 -3 -5 -12 -9 -20 -9 -8 0 -13 4 -10 8
3 5 -1 9 -9 9 -8 0 -12 -4 -9 -9 3 -4 1 -8 -5 -8 -5 0 -13 5 -16 10 -5 8 -11
7 -21 -1 -11 -9 -14 -8 -14 2 0 10 -2 11 -8 2 -8 -13 -29 -12 -51 1 -8 5 -17
3 -22 -5 -8 -12 -10 -12 -18 0 -7 11 -9 11 -14 0 -4 -12 -7 -11 -16 1 -8 11
-11 11 -11 2 0 -15 -31 -12 -42 3 -5 6 -8 5 -8 -4 0 -10 -3 -11 -14 -2 -11 9
-16 9 -22 0 -5 -8 -3 -9 6 -4 9 6 11 4 6 -4 -6 -10 -12 -9 -24 1 -19 16 -31
17 -49 5 -8 -5 -13 -3 -13 5 0 10 -2 10 -9 -1 -5 -8 -11 -9 -15 -3 -6 9 -53 8
-63 -2 -4 -3 -12 -1 -20 6 -11 8 -12 7 -7 -6z m554 -2 c0 -8 -19 -13 -24 -6
-3 5 1 9 9 9 8 0 15 -2 15 -3z m240 0 c0 -8 -19 -13 -24 -6 -3 5 1 9 9 9 8 0
15 -2 15 -3z m400 0 c0 -8 -19 -13 -24 -6 -3 5 1 9 9 9 8 0 15 -2 15 -3z m240
0 c0 -8 -19 -13 -24 -6 -3 5 1 9 9 9 8 0 15 -2 15 -3z m865 -1663 c3 -5 2 -12
-3 -15 -5 -3 -9 1 -9 9 0 17 3 19 12 6z m0 -160 c3 -5 2 -12 -3 -15 -5 -3 -9
1 -9 9 0 17 3 19 12 6z m0 -160 c3 -5 2 -12 -3 -15 -5 -3 -9 1 -9 9 0 17 3 19
12 6z m0 -160 c3 -5 2 -12 -3 -15 -5 -3 -9 1 -9 9 0 17 3 19 12 6z m0 -160 c3
-5 2 -12 -3 -15 -5 -3 -9 1 -9 9 0 17 3 19 12 6z m0 -160 c3 -5 2 -12 -3 -15
-5 -3 -9 1 -9 9 0 17 3 19 12 6z m0 -160 c3 -5 2 -12 -3 -15 -5 -3 -9 1 -9 9
0 17 3 19 12 6z m0 -160 c3 -5 2 -12 -3 -15 -5 -3 -9 1 -9 9 0 17 3 19 12 6z"/>
<path d="M4368 9336 c-7 -7 -19 -11 -27 -8 -8 3 -11 0 -8 -6 8 -12 -47 -77
-65 -77 -7 -1 -12 -6 -10 -13 2 -11 -11 -16 -31 -13 -5 1 -6 -2 -3 -7 6 -9
-44 -58 -55 -55 -4 1 -12 -11 -19 -27 -7 -17 -17 -30 -22 -30 -5 0 -6 5 -2 12
4 7 3 8 -4 4 -7 -4 -12 -16 -12 -26 0 -14 -5 -18 -17 -13 -11 4 -14 3 -9 -5 4
-7 2 -12 -3 -12 -6 0 -11 -7 -11 -16 0 -8 -4 -12 -10 -9 -5 3 -10 1 -10 -5 0
-6 -5 -8 -12 -4 -8 5 -9 2 -5 -10 4 -10 3 -15 -3 -11 -6 3 -13 -1 -16 -9 -3
-9 -10 -13 -15 -10 -5 3 -9 -2 -9 -11 0 -11 -5 -15 -14 -12 -10 4 -13 1 -10
-7 3 -8 0 -17 -7 -22 -8 -5 -10 -3 -4 6 6 9 4 11 -4 6 -7 -5 -10 -15 -7 -23 4
-9 1 -13 -6 -11 -12 4 -71 -49 -96 -87 -7 -11 -10 -13 -7 -5 4 8 -1 6 -10 -5
-9 -11 -21 -19 -27 -17 -7 2 -5 -4 2 -13 12 -15 11 -16 -6 -13 -11 2 -18 -2
-17 -9 2 -7 -4 -10 -12 -7 -11 5 -13 2 -9 -10 4 -11 2 -16 -7 -14 -8 2 -13 -4
-13 -14 1 -10 -2 -16 -6 -13 -5 3 -12 0 -15 -6 -4 -5 -13 -8 -21 -5 -8 3 -11
0 -7 -10 3 -7 0 -14 -6 -14 -6 0 -11 -6 -11 -13 0 -6 -13 -18 -30 -25 -16 -8
-28 -17 -27 -22 1 -4 -2 -8 -7 -8 -5 0 -15 -15 -23 -33 -11 -26 -16 -29 -28
-19 -12 10 -14 8 -10 -9 2 -11 0 -20 -5 -18 -5 1 -16 -7 -25 -18 -9 -11 -13
-14 -9 -6 5 9 3 12 -4 7 -7 -4 -12 -14 -12 -22 0 -8 -4 -12 -10 -9 -9 5 -14
-7 -11 -27 0 -4 -8 -5 -19 -3 -13 3 -17 -1 -13 -11 3 -8 2 -14 -3 -12 -10 3
-60 -44 -57 -53 1 -4 -9 -10 -23 -13 -20 -5 -23 -10 -14 -21 8 -10 8 -15 -1
-21 -8 -4 -9 -3 -5 4 16 27 -12 9 -44 -28 -19 -22 -41 -40 -48 -40 -7 0 -10
-4 -7 -10 3 -5 2 -10 -2 -10 -5 0 -18 -7 -29 -16 -10 -8 -12 -13 -4 -9 10 4 9
2 -2 -8 -10 -8 -14 -18 -10 -23 4 -4 0 -3 -10 4 -12 10 -18 10 -24 1 -4 -8 -3
-9 4 -5 7 4 12 2 12 -3 0 -6 -7 -11 -15 -11 -8 0 -14 -4 -13 -9 4 -13 -43 -52
-54 -45 -4 3 -8 2 -7 -3 4 -22 -2 -35 -15 -30 -10 4 -14 0 -11 -13 2 -12 -1
-17 -9 -14 -7 3 -27 -11 -44 -30 -16 -19 -33 -33 -36 -30 -3 2 -4 1 -2 -2 7
-9 -27 -44 -36 -38 -5 3 -7 1 -6 -4 2 -6 -10 -22 -27 -37 -16 -15 -24 -24 -16
-20 9 5 12 4 7 -3 -3 -6 -16 -9 -27 -7 -17 4 -19 2 -8 -11 10 -12 9 -13 -5 -8
-11 4 -16 2 -14 -7 2 -8 -3 -13 -9 -11 -7 1 -13 -5 -13 -13 0 -9 -13 -23 -29
-33 -26 -15 -28 -17 -13 -30 10 -7 11 -11 5 -7 -9 4 -11 1 -7 -9 3 -9 10 -16
16 -16 5 0 6 -4 3 -10 -3 -5 3 -10 14 -10 12 0 20 -6 19 -12 -2 -7 3 -12 11
-10 8 2 11 -3 8 -12 -4 -9 -1 -15 6 -13 7 1 11 -4 9 -10 -2 -12 10 -17 31 -14
4 0 7 -4 7 -10 0 -15 26 -39 34 -32 3 4 6 1 6 -6 0 -16 25 -41 41 -41 7 0 10
-3 6 -6 -10 -11 70 -87 83 -79 8 5 11 4 7 -2 -8 -12 27 -56 37 -46 3 3 6 -1 6
-10 0 -11 8 -17 23 -18 12 0 16 -3 10 -6 -10 -3 -10 -8 1 -19 8 -8 17 -14 21
-14 9 0 65 -63 65 -72 0 -5 7 -8 15 -8 9 0 20 -10 25 -22 5 -13 9 -19 9 -15 1
4 25 -17 55 -48 30 -30 59 -55 65 -55 6 0 11 -7 11 -15 0 -9 8 -19 18 -22 19
-8 42 -28 42 -38 0 -12 27 -34 34 -28 3 4 6 -1 6 -11 0 -9 5 -14 10 -11 6 3
10 -2 10 -11 0 -10 3 -15 6 -11 8 8 34 -18 34 -33 0 -7 7 -9 16 -6 8 3 13 2
10 -2 -2 -4 2 -16 10 -27 8 -10 14 -16 14 -12 0 5 6 2 14 -5 8 -7 12 -16 9
-20 -2 -5 1 -8 7 -8 15 0 41 -26 33 -34 -4 -3 -1 -6 6 -6 16 0 42 -26 34 -34
-4 -3 1 -6 10 -6 9 0 17 -4 17 -10 0 -5 7 -10 15 -10 9 0 12 -6 9 -15 -5 -11
-2 -14 12 -9 11 4 16 4 12 0 -8 -10 45 -66 62 -66 7 0 11 -3 7 -6 -3 -3 5 -16
18 -29 14 -12 21 -25 17 -29 -4 -4 -2 -7 3 -5 16 4 45 -12 40 -21 -3 -5 -1
-11 5 -15 5 -3 10 0 11 7 0 7 5 2 11 -12 6 -14 10 -29 9 -33 -1 -5 3 -6 8 -3
5 4 12 2 16 -4 4 -6 11 -7 17 -4 6 4 8 2 4 -4 -3 -6 4 -18 16 -26 12 -9 19
-16 15 -16 -5 0 -2 -7 7 -15 8 -8 19 -15 25 -15 6 0 11 -4 11 -8 0 -5 9 -19
19 -31 14 -16 21 -18 24 -9 4 10 6 10 6 0 1 -6 33 -45 73 -85 39 -39 68 -66
63 -58 -5 9 -4 12 3 7 6 -4 9 -13 5 -22 -3 -9 0 -14 8 -12 8 2 13 -3 11 -9 -1
-7 7 -13 19 -13 11 0 17 -4 14 -10 -3 -5 5 -15 19 -21 14 -7 23 -17 19 -22 -4
-7 1 -8 12 -3 16 6 16 4 4 -11 -9 -11 -10 -14 -1 -9 7 4 15 1 18 -8 3 -9 13
-16 21 -16 8 0 11 -4 8 -10 -3 -5 1 -10 9 -10 9 0 16 -7 16 -16 0 -8 5 -12 10
-9 6 3 10 -1 10 -10 0 -9 4 -13 10 -10 6 3 10 -2 10 -11 0 -10 3 -15 6 -11 8
8 33 -16 27 -25 -2 -5 1 -8 7 -8 15 0 40 -25 40 -41 0 -7 2 -10 5 -7 9 8 73
-56 67 -66 -3 -5 0 -6 5 -3 12 8 36 -17 26 -26 -6 -6 11 -11 30 -8 4 0 7 -4 7
-9 0 -15 47 -60 54 -53 3 4 6 1 6 -6 0 -14 30 -47 31 -34 0 4 4 -2 10 -15 5
-13 13 -21 18 -17 5 3 12 -4 16 -15 3 -11 13 -20 21 -20 8 0 12 -4 9 -10 -3
-5 -2 -10 3 -10 14 0 52 -36 52 -49 0 -7 5 -9 10 -6 6 3 10 -1 10 -10 0 -9 5
-13 10 -10 6 3 10 -2 10 -11 0 -10 3 -15 6 -11 7 7 74 -61 74 -76 0 -7 4 -6
10 3 8 13 10 13 10 0 0 -8 20 -33 45 -56 24 -23 41 -45 37 -49 -4 -5 -2 -5 5
-1 7 4 19 -4 29 -19 9 -14 23 -25 30 -25 8 0 14 -3 14 -7 1 -11 70 -87 70 -77
0 5 8 -3 17 -16 20 -29 64 -66 75 -63 4 2 5 -4 2 -11 -3 -9 3 -17 15 -21 12
-3 21 -13 21 -22 0 -10 6 -13 16 -9 8 3 13 2 10 -2 -3 -5 4 -14 14 -22 10 -8
17 -17 14 -22 -3 -4 2 -8 10 -8 9 0 16 -5 16 -10 0 -6 11 -15 24 -21 16 -8 22
-17 18 -27 -4 -11 -1 -14 10 -10 10 4 19 -2 27 -19 8 -18 16 -23 28 -18 10 3
14 3 11 -1 -9 -8 10 -46 20 -40 4 2 12 -2 19 -9 10 -11 10 -15 0 -18 -7 -3 -1
-6 12 -6 13 -1 22 -4 18 -7 -7 -8 38 -54 53 -54 6 0 9 -4 6 -8 -3 -5 6 -15 19
-22 13 -7 23 -16 21 -19 -2 -3 2 -12 10 -19 8 -7 14 -10 14 -5 0 4 6 -2 14
-12 8 -11 12 -24 9 -29 -4 -5 -1 -6 5 -2 13 8 94 -73 85 -87 -3 -6 -1 -7 5 -3
7 4 22 -4 35 -18 13 -14 28 -22 32 -18 5 4 5 2 1 -5 -4 -7 4 -19 19 -29 14 -9
25 -23 25 -31 0 -8 4 -12 9 -9 5 3 12 -1 15 -10 4 -10 12 -14 22 -10 14 6 15
4 4 -9 -11 -13 -11 -16 1 -13 8 2 13 -3 11 -10 -1 -8 2 -11 8 -7 5 3 10 1 10
-5 0 -6 5 -8 10 -5 6 3 10 2 10 -4 0 -6 28 -38 63 -72 34 -34 61 -66 60 -70
-2 -4 6 -6 17 -4 11 2 19 1 17 -3 -1 -4 6 -18 16 -32 9 -13 17 -21 17 -17 0 5
7 2 15 -7 8 -8 15 -20 15 -27 0 -7 3 -10 6 -6 3 3 17 -4 30 -16 18 -15 21 -23
12 -29 -9 -5 -5 -8 10 -8 13 0 20 -4 17 -10 -4 -6 1 -7 12 -3 10 3 15 3 12 -1
-8 -9 125 -146 141 -146 6 0 8 -4 5 -10 -3 -5 -1 -10 5 -10 6 0 8 -4 5 -10 -3
-6 1 -7 9 -4 10 4 16 1 16 -9 0 -9 9 -19 20 -22 11 -4 18 -11 14 -16 -3 -6 3
-13 15 -16 11 -3 19 -9 16 -13 -3 -4 2 -11 11 -14 8 -3 12 -10 9 -16 -3 -6 1
-7 9 -4 15 6 21 -6 17 -29 -1 -5 3 -5 9 -2 12 8 52 -33 45 -45 -3 -5 5 -6 17
-3 16 3 19 2 10 -4 -9 -7 -6 -13 13 -21 14 -7 23 -17 20 -22 -3 -6 -1 -10 5
-10 13 0 46 -30 33 -30 -4 0 3 -6 17 -13 14 -8 24 -19 22 -26 -1 -7 2 -10 7
-7 5 3 12 -1 15 -10 3 -9 13 -14 21 -11 9 4 12 1 9 -7 -3 -8 8 -23 25 -36 17
-12 28 -26 25 -32 -4 -7 -2 -8 4 -4 7 4 12 3 12 -3 0 -5 9 -13 20 -16 11 -3
20 -12 20 -20 0 -7 7 -16 16 -19 8 -3 12 -10 9 -16 -3 -5 3 -10 14 -10 11 0
23 -5 27 -12 5 -7 3 -8 -6 -3 -9 6 -11 4 -6 -4 5 -7 14 -10 22 -7 8 3 13 2 12
-2 -4 -12 26 -52 39 -52 7 0 13 -6 13 -14 0 -8 9 -18 20 -21 11 -3 20 -13 20
-21 0 -8 8 -18 18 -21 23 -9 42 -29 35 -37 -4 -3 -1 -6 6 -6 16 0 42 -26 34
-34 -4 -3 -1 -6 6 -6 17 0 61 -46 53 -55 -4 -4 -2 -6 3 -5 26 6 37 -1 31 -17
-4 -10 -4 -14 0 -11 4 4 20 -7 35 -23 16 -17 29 -27 30 -23 0 5 4 -1 10 -14 5
-13 13 -21 18 -18 9 6 26 -22 22 -38 -1 -5 5 -6 14 -2 10 3 18 -1 22 -12 9
-25 44 -53 56 -45 5 3 7 1 3 -5 -3 -6 3 -17 14 -25 11 -7 17 -17 13 -20 -6 -7
13 -11 31 -8 5 1 3 -6 -5 -15 -8 -10 -9 -15 -3 -11 7 4 17 0 24 -8 7 -8 17
-12 23 -8 6 3 7 1 3 -5 -4 -7 -2 -12 4 -12 6 0 8 -4 5 -10 -3 -5 -1 -10 5 -10
15 0 100 -87 92 -94 -3 -3 2 -6 11 -6 10 0 17 -4 17 -8 0 -5 11 -15 25 -22 13
-7 23 -18 22 -24 -1 -5 8 -15 21 -21 12 -5 22 -13 22 -18 0 -13 27 -37 34 -30
3 4 6 -1 6 -9 0 -9 8 -22 18 -29 15 -12 16 -12 7 1 -5 9 -2 7 7 -3 10 -11 15
-24 11 -30 -3 -5 -1 -7 5 -3 6 3 17 -3 25 -14 7 -11 17 -17 20 -13 4 3 7 -1 7
-11 0 -9 4 -14 10 -11 6 3 10 -2 10 -11 0 -10 3 -15 6 -11 8 8 34 -18 34 -34
0 -7 3 -10 6 -6 8 8 34 -18 34 -34 0 -7 3 -9 7 -6 3 4 13 -2 20 -13 8 -11 19
-18 24 -14 5 3 8 2 7 -3 -4 -12 89 -103 97 -95 3 3 3 -2 -1 -13 -6 -15 -4 -17
11 -11 11 4 16 4 12 0 -4 -4 2 -14 13 -21 11 -8 18 -18 15 -23 -3 -5 3 -7 14
-5 15 3 18 -1 14 -18 -4 -16 -2 -18 5 -8 8 11 11 9 17 -8 3 -12 11 -19 16 -16
9 6 14 -9 9 -30 -1 -5 1 -7 5 -3 4 3 19 -7 34 -23 15 -16 30 -26 33 -23 3 3 8
-7 12 -20 3 -14 10 -25 14 -23 4 1 36 -26 69 -60 34 -35 67 -63 73 -63 6 0 8
-4 5 -10 -3 -5 -1 -10 5 -10 6 0 8 -4 5 -10 -3 -6 1 -7 9 -4 11 4 16 0 16 -10
0 -9 7 -16 17 -16 9 0 14 -3 10 -6 -3 -3 10 -19 29 -36 19 -16 31 -35 27 -41
-4 -6 -1 -7 6 -3 13 8 43 -23 35 -36 -3 -4 2 -5 10 -2 9 3 16 1 16 -5 0 -6 7
-11 16 -11 14 0 14 -3 4 -15 -11 -13 -10 -14 5 -8 15 5 17 3 12 -11 -4 -10 -3
-15 3 -11 6 3 10 1 10 -5 0 -6 5 -8 10 -5 6 3 10 -1 10 -9 0 -9 5 -16 10 -16
14 0 50 -37 50 -52 0 -6 3 -9 6 -6 3 3 30 -18 61 -48 30 -30 59 -54 64 -54 5
0 9 -5 9 -11 0 -13 58 -69 71 -69 5 0 9 -8 9 -17 0 -9 3 -13 7 -10 7 8 39 -34
35 -46 -1 -4 1 -6 5 -6 21 3 33 -3 33 -17 0 -10 5 -14 16 -10 8 3 13 2 10 -2
-2 -4 2 -16 10 -27 8 -10 14 -16 14 -12 0 4 9 -1 20 -10 11 -10 20 -23 20 -31
0 -7 5 -10 10 -7 6 3 14 -4 19 -17 6 -13 10 -19 10 -15 1 4 29 -20 63 -55 34
-35 66 -62 70 -60 7 2 12 -13 9 -31 0 -4 4 -7 10 -7 6 0 40 -29 75 -65 36 -36
69 -65 75 -65 6 0 8 -4 5 -8 -6 -10 30 -43 38 -35 3 4 6 -1 6 -11 0 -9 5 -14
10 -11 5 3 10 -1 10 -9 0 -9 7 -16 16 -16 8 0 12 -4 9 -10 -3 -5 2 -10 11 -10
10 0 14 -3 11 -6 -10 -10 34 -45 46 -37 5 3 7 1 3 -5 -3 -6 5 -19 19 -30 14
-11 25 -24 25 -29 0 -6 12 -15 26 -21 14 -7 22 -17 19 -22 -3 -6 -2 -10 3 -10
14 0 62 -47 55 -54 -4 -3 -1 -6 5 -6 15 0 63 -41 58 -49 -2 -3 6 -6 19 -6 13
0 21 3 18 8 -4 6 19 11 39 8 4 0 5 5 2 13 -3 7 2 16 11 20 9 3 13 11 10 16 -4
6 -3 10 2 9 18 -3 34 2 29 9 -3 5 7 17 21 27 14 11 45 38 68 61 24 23 47 39
50 36 3 -4 3 2 -1 11 -3 10 -2 17 2 15 5 -2 64 51 131 117 67 66 129 126 138
133 8 7 13 17 10 22 -4 6 2 7 11 3 12 -4 15 -3 10 5 -7 11 6 17 27 13 5 -1 5
3 2 10 -7 11 33 46 48 41 4 -1 6 1 5 5 -3 15 14 43 23 37 5 -3 13 5 18 18 6
13 10 20 10 16 1 -3 28 20 61 53 33 32 65 59 71 59 5 0 8 4 5 9 -3 5 12 23 34
42 21 18 36 37 33 43 -3 5 -1 6 4 3 6 -4 19 4 29 18 10 13 21 22 26 19 4 -3 8
2 8 10 0 9 5 16 11 16 5 0 7 4 4 10 -3 5 0 7 9 4 9 -3 17 2 21 15 3 12 11 19
16 16 5 -4 9 -2 9 3 0 5 9 19 20 32 11 13 20 21 20 18 0 -3 18 12 40 33 22 21
40 43 40 49 0 5 5 10 10 10 6 0 39 29 74 65 35 35 67 61 71 57 3 -4 5 -2 3 4
-4 12 128 144 144 144 6 0 9 3 5 6 -6 7 41 54 54 54 4 0 11 9 14 20 4 11 11
18 16 15 5 -4 9 1 9 9 0 9 6 15 13 14 6 -2 11 2 10 9 -2 6 6 15 17 18 11 4 18
11 15 16 -4 5 1 9 10 9 9 0 13 4 10 10 -6 9 8 14 28 11 5 -1 6 3 2 9 -3 5 7
22 22 36 15 15 27 31 25 37 -2 6 4 4 13 -3 9 -7 15 -9 13 -4 -3 13 21 54 32
54 14 0 70 57 63 64 -4 3 2 6 11 6 12 0 16 5 13 14 -4 10 -1 13 9 9 7 -3 14 0
14 7 0 6 5 8 10 5 6 -4 9 -1 8 7 -2 7 2 12 9 11 7 -2 10 4 7 12 -4 8 -1 15 6
15 7 0 23 11 35 24 13 14 26 22 29 18 4 -3 4 2 0 12 -5 14 -4 17 4 12 7 -4 15
-1 18 8 3 9 12 16 20 16 8 0 11 6 7 17 -5 12 -2 15 10 10 9 -3 17 -2 17 3 0
13 43 56 53 52 4 -1 7 5 7 14 0 8 5 12 10 9 6 -3 10 1 10 9 0 9 7 16 16 16 10
0 14 6 11 14 -4 11 -1 13 10 9 9 -4 14 -2 11 3 -6 11 28 45 36 37 3 -4 6 -2 6
3 0 6 7 19 16 30 8 10 13 12 9 4 -4 -8 1 -6 9 4 9 11 16 24 16 30 0 5 3 7 6 4
3 -3 19 7 36 22 20 19 28 33 22 42 -6 10 -4 10 10 -1 9 -8 16 -10 15 -5 -3 18
1 37 8 31 3 -4 12 2 20 13 8 11 21 20 29 20 8 0 13 3 12 7 -4 12 39 52 47 45
4 -4 5 -2 3 3 -4 12 37 55 52 55 9 0 14 14 11 33 0 4 3 6 7 5 5 -2 25 14 45
35 20 22 41 36 47 32 6 -4 10 -3 9 2 -3 19 2 34 9 29 5 -3 16 4 25 15 9 10 13
19 9 19 -4 1 3 6 15 13 12 7 22 17 23 22 1 6 6 9 12 7 5 -1 12 7 15 18 3 11 9
18 13 15 5 -3 11 4 15 15 4 11 10 18 15 15 5 -3 14 4 20 15 6 11 15 18 21 15
5 -4 8 -3 7 2 -2 4 19 31 47 58 27 28 45 44 40 36 -5 -10 -4 -12 3 -7 7 4 12
16 12 27 0 10 3 18 8 17 4 -1 31 21 61 50 30 28 59 49 65 45 6 -4 5 1 -3 11
-8 9 -10 16 -5 15 16 -4 44 13 38 22 -3 5 0 9 6 9 6 0 8 5 4 12 -4 6 -3 8 3 5
15 -9 55 23 49 40 -3 8 -1 11 4 8 5 -3 19 6 32 20 12 14 29 25 37 25 14 0 14
1 1 10 -13 9 -7 14 13 11 4 0 7 3 7 9 0 5 8 10 18 10 14 0 15 2 2 10 -13 8
-12 10 3 10 11 0 15 4 11 12 -5 8 -2 9 9 5 9 -3 19 -1 23 5 5 7 2 8 -7 3 -8
-4 11 16 41 44 30 29 54 57 52 63 -1 5 1 7 6 4 5 -3 19 8 31 25 12 16 26 27
32 24 5 -4 9 1 9 10 0 9 5 13 10 10 6 -3 10 -1 10 6 0 12 50 59 63 59 5 0 5 4
2 10 -3 5 1 10 10 10 9 0 13 5 10 10 -3 6 1 10 9 10 9 0 16 7 16 16 0 8 5 12
10 9 6 -3 10 1 10 9 0 9 3 15 8 14 9 -4 52 39 52 52 0 5 7 6 17 3 10 -4 14 -2
9 5 -3 6 3 17 14 25 11 7 17 17 13 20 -3 4 2 7 11 7 13 0 16 5 12 16 -5 14 -4
15 9 4 11 -9 15 -9 15 -1 0 6 14 25 30 41 17 16 30 34 30 40 0 6 5 8 10 5 6
-3 10 -1 10 5 0 6 4 9 9 6 4 -3 13 6 20 20 6 14 15 23 20 20 9 -6 26 22 22 37
-1 5 2 6 7 3 5 -3 15 4 22 15 8 10 20 19 27 19 7 0 12 6 11 13 -2 6 2 11 9 10
6 -2 15 6 18 17 4 11 13 20 21 20 8 0 12 4 9 10 -3 6 -1 10 5 10 16 0 121 110
115 120 -3 5 4 7 15 5 13 -2 20 1 20 11 0 8 5 14 10 14 6 0 10 7 10 15 0 8 6
14 13 13 6 -2 11 3 9 10 -1 6 2 11 7 10 5 -2 24 14 44 34 19 20 37 34 41 31 6
-6 10 13 7 30 -1 5 3 6 9 2 5 -3 10 -1 10 5 0 6 5 8 10 5 9 -6 14 8 11 28 -1
5 3 6 8 3 5 -4 16 3 24 14 7 11 17 17 22 12 4 -4 5 1 2 10 -4 13 -1 16 14 13
11 -2 17 0 13 6 -7 11 35 46 49 41 5 -1 6 2 3 7 -3 5 8 21 25 35 17 14 27 26
22 27 -4 0 2 4 15 10 13 5 20 13 17 19 -3 5 1 10 10 10 11 0 15 5 12 14 -4 10
0 12 14 9 11 -3 19 -2 17 3 -2 5 16 28 40 52 23 23 42 47 42 52 0 6 3 9 8 9
19 -3 33 2 27 11 -3 5 -1 10 5 10 6 0 8 5 5 10 -3 6 3 10 15 10 12 0 19 3 17
8 -6 9 59 73 67 65 3 -4 6 1 6 11 0 10 14 23 31 30 21 9 27 15 18 19 -10 4 -9
6 4 6 10 1 16 5 13 10 -4 5 12 22 34 39 22 16 37 32 33 35 -3 4 -1 7 5 7 15 0
52 36 52 50 0 6 5 10 11 10 5 0 7 -5 3 -12 -4 -7 -3 -8 4 -4 6 4 8 14 5 23 -4
11 -3 14 5 9 7 -4 12 -2 12 3 0 6 7 11 15 11 8 0 15 4 15 10 0 16 33 50 50 50
12 0 12 2 2 9 -10 6 -8 10 8 14 13 3 19 10 15 17 -3 6 -2 9 3 8 4 -2 25 14 45
35 20 20 37 34 37 30 1 -5 7 3 15 17 8 14 14 21 15 15 0 -5 11 6 24 25 13 20
35 42 50 49 14 8 26 20 26 28 0 7 4 12 9 11 5 -2 9 2 9 7 0 6 13 15 29 22 15
7 21 12 13 13 -9 0 -2 8 15 20 17 11 26 20 20 21 -5 0 0 4 13 10 13 5 20 13
17 19 -3 5 1 10 9 10 9 0 16 5 16 10 0 6 7 10 15 10 8 0 12 6 9 14 -3 8 3 16
16 19 12 3 19 10 15 16 -3 7 3 11 15 11 12 0 19 4 15 9 -3 6 4 15 15 21 11 6
18 15 15 21 -4 5 -3 9 2 8 22 -4 32 2 27 16 -5 11 -2 13 10 9 9 -4 16 -3 14 2
-4 12 39 54 46 46 6 -5 10 14 7 31 -1 5 3 6 9 2 5 -3 13 1 16 9 3 9 10 13 15
10 5 -3 9 2 9 11 0 9 5 13 10 10 6 -3 10 0 10 8 0 7 11 20 25 27 14 7 25 17
25 22 0 5 4 6 10 3 6 -4 7 1 3 11 -5 13 -3 15 7 9 10 -6 12 -4 6 10 -5 15 -4
16 9 5 9 -7 15 -9 13 -3 -3 11 93 108 105 105 4 -1 7 4 7 12 0 8 7 17 16 20 8
3 12 11 8 17 -4 8 -3 9 4 5 6 -3 16 3 22 14 7 13 17 19 26 16 8 -3 12 -1 9 4
-7 11 69 92 79 83 3 -3 6 -1 6 6 0 7 5 9 12 5 7 -4 8 -3 4 5 -8 12 18 44 28
34 6 -6 10 13 6 32 -1 5 1 7 5 3 4 -4 14 0 22 8 8 8 19 11 25 8 6 -4 9 -3 5 2
-3 5 1 18 9 29 8 10 14 15 14 10 0 -4 9 2 20 15 11 13 20 27 20 33 0 5 7 6 16
3 8 -3 12 -2 9 4 -3 6 1 13 9 16 9 3 16 12 16 20 0 8 6 11 15 8 9 -4 15 0 15
10 0 8 9 20 20 26 11 6 18 15 15 21 -6 8 8 13 28 10 4 0 7 3 7 9 0 5 19 29 43
53 23 23 41 46 39 50 -1 5 2 6 7 2 6 -3 15 3 20 14 6 11 20 23 31 26 11 4 18
11 15 16 -4 5 -1 9 5 9 6 0 8 4 5 10 -3 5 0 7 8 5 7 -3 19 5 27 19 7 14 16 23
20 21 5 -3 11 2 14 11 3 9 11 12 18 8 9 -5 8 -2 -1 10 -8 9 -10 16 -5 15 21
-4 35 2 29 11 -3 6 -1 10 5 10 6 0 8 5 4 12 -4 7 -3 8 4 4 6 -4 26 7 43 24 18
16 28 30 23 30 -5 0 -2 4 6 10 9 6 17 5 23 -3 6 -8 7 -6 3 5 -3 11 2 22 15 28
11 6 16 16 13 22 -4 7 -3 8 4 4 6 -4 18 5 28 19 9 13 21 22 27 18 6 -4 8 0 4
11 -4 10 -3 15 3 11 5 -3 15 3 22 15 7 11 19 20 26 20 7 0 11 3 9 8 -5 9 30
42 37 35 3 -4 6 -2 6 3 0 6 7 19 16 30 8 10 13 12 9 4 -4 -8 1 -6 9 4 9 11 16
24 16 29 0 4 3 6 8 4 9 -6 33 19 25 27 -4 3 -1 6 6 6 7 0 27 16 45 35 19 19
38 35 45 35 6 0 11 5 11 11 0 5 -6 7 -12 4 -7 -4 -4 0 6 9 10 8 23 13 29 9 6
-3 7 -1 3 6 -4 6 0 14 8 17 9 3 13 10 10 15 -3 5 1 9 8 9 14 0 54 40 40 40 -4
0 1 7 11 15 18 13 18 14 -2 27 -12 7 -21 18 -21 25 0 7 -5 13 -11 13 -5 0 -7
6 -3 13 5 8 2 8 -9 -2 -17 -13 -23 -6 -18 22 1 7 -16 11 -34 7 -5 -1 -7 2 -3
6 5 4 -1 14 -12 21 -11 8 -17 20 -14 26 4 7 4 9 0 5 -11 -9 -46 23 -39 35 4 7
-1 8 -13 3 -10 -4 -15 -4 -12 0 4 3 -6 17 -22 31 -19 15 -27 30 -24 41 5 13 4
14 -4 3 -7 -9 -12 -10 -16 -2 -4 6 -13 8 -19 4 -7 -4 -5 2 3 12 9 11 10 16 3
11 -8 -4 -13 -2 -13 4 0 6 -4 9 -9 6 -5 -3 -12 1 -15 10 -3 9 -11 12 -18 8 -9
-5 -8 -2 1 9 12 15 12 17 -4 10 -14 -5 -17 -3 -12 10 4 11 2 14 -9 10 -12 -4
-18 7 -16 28 1 4 -9 5 -21 3 -12 -2 -16 -1 -9 2 18 9 -15 45 -34 37 -8 -3 -14
-1 -14 5 0 6 6 13 13 15 11 5 -18 11 -36 8 -5 -1 -6 3 -2 9 3 5 1 10 -5 10 -6
0 -8 5 -5 10 3 6 1 10 -5 10 -14 0 -66 51 -63 62 2 4 -4 5 -12 2 -11 -5 -13
-2 -8 12 4 12 3 15 -5 10 -7 -4 -12 -2 -12 4 0 6 -5 8 -12 4 -7 -4 -8 -3 -4 5
4 6 0 14 -8 17 -9 3 -13 11 -9 18 4 6 -1 5 -10 -3 -15 -12 -17 -11 -17 3 0 20
-23 46 -40 46 -6 0 -9 3 -7 8 3 4 -1 13 -9 20 -8 7 -14 10 -14 7 0 -4 -7 0
-15 9 -8 8 -15 19 -15 25 0 5 -5 13 -12 17 -7 5 -8 2 -3 -7 4 -8 -3 -3 -17 11
-13 14 -23 28 -22 31 4 7 -34 39 -46 39 -9 0 -14 14 -11 32 0 4 -5 5 -13 2 -7
-3 -16 2 -19 10 -4 9 -14 16 -24 16 -15 0 -16 2 -3 10 13 9 13 10 0 10 -8 0
-26 14 -40 30 -14 17 -32 30 -40 30 -13 0 -13 1 0 10 13 9 13 10 0 10 -8 0
-26 12 -40 27 -14 15 -19 23 -12 19 6 -4 12 -5 12 -1 0 7 -52 29 -64 26 -5 -1
-4 4 3 13 10 12 8 16 -8 21 -12 3 -21 14 -22 23 0 10 -3 12 -6 5 -3 -10 -8
-10 -19 1 -8 8 -14 20 -14 26 0 6 -5 8 -10 5 -5 -3 -10 0 -10 7 0 7 -8 22 -17
33 -12 16 -14 16 -10 3 3 -10 2 -20 -4 -23 -5 -4 -9 -3 -8 2 5 28 -2 45 -17
39 -12 -4 -14 -1 -9 14 5 15 2 18 -14 15 -13 -2 -18 1 -15 10 6 14 -49 58 -60
48 -3 -3 -6 -1 -6 5 0 5 6 13 13 15 12 5 -19 11 -38 7 -5 -1 -7 2 -3 5 4 4 -6
20 -22 35 -17 16 -30 33 -30 40 0 6 -4 8 -10 5 -6 -3 -10 -1 -10 5 0 6 -5 8
-12 4 -8 -5 -9 -2 -5 9 4 11 1 17 -8 17 -8 0 -15 5 -15 11 0 5 -4 7 -10 4 -6
-3 -10 4 -10 15 0 17 -4 21 -17 16 -10 -4 -14 -4 -10 0 9 10 -33 45 -46 37 -5
-3 -7 -1 -4 4 4 6 -1 19 -11 30 -9 10 -14 14 -9 7 5 -8 0 -10 -18 -6 -14 2
-25 0 -25 -5 0 -5 -11 -15 -25 -21 -14 -6 -25 -19 -25 -27 0 -9 -4 -14 -9 -11
-5 3 -12 -1 -15 -10 -3 -8 -10 -12 -16 -9 -6 4 -7 -1 -3 -12 3 -10 3 -15 -1
-12 -9 8 -54 -33 -49 -43 2 -5 -3 -8 -12 -8 -8 0 -18 -7 -21 -15 -4 -8 -12
-15 -20 -15 -8 0 -13 -4 -12 -9 3 -10 -40 -51 -54 -51 -5 0 -7 -4 -3 -9 3 -6
-4 -15 -15 -21 -11 -6 -18 -15 -15 -21 4 -5 -1 -9 -10 -9 -8 0 -18 -7 -21 -15
-4 -8 -13 -15 -22 -15 -8 0 -13 -3 -9 -6 7 -7 -49 -64 -63 -64 -6 0 -9 -6 -8
-12 2 -7 -3 -12 -10 -10 -6 1 -12 -5 -12 -13 0 -8 -10 -20 -22 -26 -30 -16
-48 -35 -41 -43 4 -3 1 -6 -6 -6 -7 0 -9 -4 -6 -10 3 -6 -1 -7 -9 -4 -11 4
-16 0 -16 -10 0 -9 -6 -15 -12 -14 -7 2 -12 -3 -10 -9 2 -12 -11 -17 -31 -14
-5 1 -6 -2 -3 -7 6 -11 -30 -43 -39 -34 -4 4 -5 3 -4 -3 4 -13 -167 -185 -184
-185 -8 0 -7 -4 3 -10 13 -8 12 -10 -3 -10 -10 0 -20 -7 -23 -15 -4 -8 -13
-15 -22 -15 -8 0 -12 -3 -9 -7 6 -5 -11 -23 -63 -66 -8 -7 -18 -11 -23 -9 -5
1 -6 -2 -3 -6 3 -5 -3 -20 -14 -32 -11 -13 -20 -20 -20 -15 0 4 -9 -4 -21 -19
-11 -14 -25 -24 -30 -21 -5 4 -6 -1 -3 -9 4 -11 0 -16 -10 -16 -9 0 -16 -8
-16 -17 0 -9 -3 -14 -6 -10 -8 8 -142 -126 -137 -136 3 -4 1 -7 -4 -6 -17 3
-33 -1 -32 -8 5 -28 -1 -35 -18 -22 -9 8 -14 9 -10 3 3 -6 -4 -22 -16 -35 -12
-13 -21 -27 -19 -32 1 -5 -2 -6 -7 -3 -5 4 -14 -2 -20 -11 -6 -10 -11 -14 -11
-9 0 5 -9 -1 -20 -14 -11 -12 -17 -27 -13 -33 3 -6 1 -7 -6 -3 -6 4 -14 1 -17
-8 -3 -8 -14 -18 -25 -21 -11 -4 -17 -11 -14 -16 4 -5 -1 -9 -10 -9 -10 0 -13
-5 -9 -12 5 -8 2 -9 -12 -4 -10 4 -16 4 -12 1 9 -10 -24 -45 -42 -45 -13 0
-13 -1 0 -10 9 -6 10 -10 3 -10 -16 0 -69 -50 -65 -61 1 -5 -4 -9 -12 -9 -8 0
-17 -7 -20 -16 -3 -8 -11 -12 -16 -9 -6 4 -9 1 -8 -7 2 -7 -3 -12 -11 -10 -9
2 -11 -3 -7 -13 3 -9 2 -14 -3 -11 -11 7 -33 -19 -24 -28 4 -4 -1 -4 -10 0
-10 4 -17 2 -15 -4 4 -15 -52 -63 -64 -56 -6 4 -8 2 -5 -3 8 -12 -45 -73 -62
-73 -6 0 -11 -6 -11 -14 0 -8 -9 -18 -20 -21 -11 -3 -20 -13 -20 -22 0 -9 -6
-13 -15 -9 -8 3 -14 2 -12 -2 1 -4 -6 -18 -16 -32 -9 -13 -17 -21 -17 -16 0 5
-11 -3 -25 -18 -13 -14 -29 -26 -35 -26 -6 0 -8 -4 -5 -10 3 -6 1 -10 -5 -10
-6 0 -8 -4 -5 -10 3 -5 2 -10 -3 -10 -14 0 -57 -41 -54 -51 1 -5 -3 -9 -9 -9
-6 0 -29 -19 -52 -42 -23 -24 -45 -42 -49 -40 -8 2 -12 -14 -9 -31 1 -5 -3 -6
-9 -2 -5 3 -10 2 -10 -3 0 -5 -11 -15 -25 -22 -14 -7 -23 -15 -20 -18 8 -8
-25 -33 -35 -27 -6 4 -10 3 -9 -2 3 -19 -2 -34 -10 -28 -5 3 -12 -4 -16 -15
-4 -11 -10 -18 -15 -15 -5 3 -11 -4 -15 -14 -3 -11 -15 -23 -26 -26 -10 -4
-17 -11 -14 -16 4 -5 1 -9 -5 -9 -6 0 -26 -16 -44 -35 -18 -19 -37 -31 -42
-27 -5 4 -6 3 -2 -2 11 -13 -12 -37 -26 -29 -6 3 -8 3 -4 -1 8 -10 -23 -47
-34 -40 -4 3 -8 -1 -8 -8 0 -17 -63 -78 -80 -78 -7 0 -10 -3 -7 -6 7 -7 -30
-44 -45 -44 -4 0 -7 -6 -6 -12 2 -7 -3 -12 -9 -10 -12 2 -17 -11 -14 -31 1 -5
-2 -6 -6 -4 -5 3 -17 -1 -28 -9 -10 -8 -15 -14 -10 -14 5 0 -2 -8 -15 -17 -14
-10 -28 -17 -33 -15 -4 1 -6 -1 -5 -5 5 -15 -30 -55 -41 -48 -7 3 -10 3 -9 -2
4 -11 -108 -123 -123 -123 -7 0 -10 -3 -6 -6 3 -3 -27 -38 -66 -77 -40 -40
-71 -75 -70 -78 1 -4 -5 -6 -15 -5 -9 0 -17 -6 -17 -14 0 -8 -11 -20 -25 -27
-14 -7 -21 -13 -15 -13 5 0 -2 -8 -15 -17 -14 -10 -28 -17 -32 -16 -4 2 -4 -5
-1 -14 4 -11 3 -14 -5 -9 -7 4 -12 1 -12 -9 0 -9 -4 -14 -8 -11 -5 3 -15 -6
-22 -19 -7 -13 -17 -22 -22 -19 -4 3 -8 0 -8 -5 0 -6 -8 -11 -17 -12 -11 0
-13 -3 -6 -6 10 -3 10 -8 -1 -19 -8 -8 -19 -14 -25 -14 -6 0 -11 -5 -11 -11 0
-5 -5 -7 -12 -3 -7 4 -8 3 -4 -5 4 -6 1 -14 -8 -17 -8 -3 -18 -14 -21 -25 -4
-11 -10 -17 -14 -14 -11 6 -51 -41 -43 -50 4 -4 3 -6 -3 -5 -20 4 -36 0 -31
-8 3 -5 -6 -15 -19 -22 -14 -7 -25 -18 -25 -23 0 -9 -63 -73 -78 -79 -4 -2 -6
-8 -6 -15 1 -7 -1 -12 -5 -11 -20 2 -31 -4 -31 -17 0 -8 -6 -14 -12 -13 -7 2
-12 -3 -10 -9 1 -7 -4 -13 -11 -13 -12 0 -39 -26 -46 -45 -6 -16 -35 -34 -45
-27 -5 3 -7 -2 -3 -11 3 -10 2 -17 -4 -17 -6 0 -25 -16 -43 -35 -19 -19 -39
-35 -46 -35 -7 0 -10 -6 -7 -14 3 -8 -2 -16 -15 -19 -11 -3 -17 -10 -13 -16 4
-7 -3 -11 -16 -11 -12 0 -20 -3 -16 -6 3 -3 -9 -20 -26 -37 -18 -17 -33 -29
-34 -27 -4 8 -38 -44 -35 -53 1 -5 -2 -6 -8 -2 -5 3 -13 -1 -16 -9 -3 -9 -10
-14 -14 -11 -5 3 -11 -4 -15 -15 -4 -11 -10 -18 -14 -15 -5 2 -13 -7 -19 -20
-7 -14 -15 -24 -19 -23 -11 4 -53 -39 -45 -46 3 -3 1 -6 -5 -6 -15 0 -53 -35
-53 -49 0 -7 -4 -10 -10 -6 -5 3 -17 -6 -26 -20 -9 -13 -21 -22 -28 -18 -6 3
-8 3 -4 -1 7 -9 -108 -126 -125 -126 -7 0 -6 -4 3 -10 12 -8 12 -10 1 -10 -7
0 -31 -18 -52 -41 -21 -22 -43 -38 -49 -34 -6 4 -7 -1 -3 -11 4 -12 3 -15 -5
-10 -7 4 -16 -3 -23 -18 -7 -14 -15 -23 -20 -21 -4 3 -10 -4 -14 -15 -4 -11
-10 -18 -14 -15 -4 2 -14 -7 -21 -21 -8 -14 -20 -22 -27 -19 -8 3 -11 0 -8 -6
4 -6 -2 -13 -13 -16 -13 -3 -19 -10 -15 -19 3 -9 0 -14 -8 -12 -8 2 -13 -3
-11 -9 1 -7 -7 -13 -18 -13 -11 0 -19 -3 -18 -7 2 -5 -17 -28 -42 -53 -25 -25
-44 -48 -42 -52 1 -5 -8 -8 -20 -8 -12 0 -18 -3 -15 -6 6 -7 -41 -56 -79 -82
-11 -7 -12 -10 -4 -7 8 4 6 -1 -4 -9 -11 -9 -24 -16 -29 -16 -4 0 -6 -4 -2 -9
3 -5 -4 -12 -15 -16 -11 -4 -19 -9 -17 -13 2 -4 -4 -15 -15 -24 -10 -10 -18
-16 -18 -14 0 2 -19 -15 -43 -38 -24 -23 -42 -44 -40 -48 2 -5 -1 -8 -6 -8
-14 0 -51 -37 -51 -51 0 -5 -5 -7 -10 -4 -6 3 -14 -4 -19 -17 -4 -13 -12 -22
-17 -22 -5 1 -8 -2 -6 -8 1 -5 -2 -7 -7 -4 -12 8 -33 -18 -23 -29 4 -5 2 -5
-4 -2 -7 4 -19 -5 -28 -18 -9 -14 -21 -23 -26 -20 -6 4 -10 1 -10 -6 0 -14
-38 -49 -53 -49 -6 0 -8 -3 -4 -6 8 -8 -93 -105 -104 -98 -5 3 -6 -2 -3 -10 6
-15 -6 -21 -30 -17 -5 1 -6 -5 -3 -14 4 -9 1 -15 -8 -15 -8 0 -15 -7 -15 -17
0 -9 -3 -13 -7 -10 -3 4 -19 -9 -36 -28 -16 -19 -33 -32 -38 -29 -5 3 -9 0 -9
-6 0 -6 -13 -24 -30 -40 -16 -16 -30 -34 -30 -40 0 -6 -5 -8 -11 -4 -6 3 -15
0 -20 -7 -8 -11 -13 -10 -28 9 -11 12 -24 22 -31 22 -6 0 -9 3 -7 8 2 4 -6 17
-19 29 -15 15 -24 18 -27 10 -3 -7 -6 -2 -6 11 -1 13 -7 22 -17 22 -8 0 -12 4
-9 10 3 5 -1 10 -10 10 -9 0 -13 5 -10 10 3 5 -1 10 -10 10 -9 0 -14 4 -10 9
3 5 -4 12 -15 16 -11 3 -20 13 -20 21 0 13 -12 18 -33 15 -4 0 -6 5 -5 11 2 7
-3 12 -9 10 -7 -1 -13 7 -13 18 0 11 -6 19 -12 18 -7 -2 -12 4 -12 13 1 12 -5
15 -20 11 -11 -3 -18 -2 -14 3 8 8 -101 121 -114 117 -4 -1 -8 3 -8 8 0 13
-67 79 -74 73 -2 -2 -7 5 -11 16 -3 12 -12 21 -19 21 -8 0 -20 8 -27 18 -13
15 -12 16 4 3 9 -8 20 -11 23 -9 3 3 -9 12 -25 19 -17 8 -31 20 -31 28 0 8 -3
12 -6 8 -8 -8 -34 18 -34 33 0 6 -4 8 -10 5 -5 -3 -10 2 -10 11 0 10 -3 15 -6
11 -8 -8 -34 18 -34 33 0 7 -7 9 -17 6 -10 -4 -14 -4 -11 0 4 3 -15 28 -42 54
-27 26 -46 50 -43 54 4 3 1 6 -6 6 -6 0 -27 15 -46 34 -18 19 -37 31 -41 27
-4 -3 -4 3 0 14 4 11 4 16 0 13 -3 -4 -17 3 -30 15 -42 40 -52 46 -60 39 -5
-4 -2 2 6 12 8 11 10 17 4 13 -6 -3 -17 3 -24 14 -8 10 -19 19 -24 19 -13 0
-46 41 -40 51 3 5 -3 6 -12 2 -13 -5 -16 -2 -12 9 4 10 1 15 -10 14 -9 0 -16
5 -14 12 1 6 -2 12 -7 12 -14 0 -80 67 -74 74 4 3 -1 6 -11 6 -9 0 -19 7 -22
15 -3 8 -14 17 -25 20 -10 4 -19 11 -19 17 0 12 -58 68 -71 68 -5 0 -9 5 -9
11 0 18 -101 110 -113 102 -6 -3 -7 -1 -3 5 4 7 2 12 -5 12 -7 0 -10 2 -7 5 5
5 -48 65 -57 65 -10 0 -75 72 -75 82 0 6 -3 9 -6 5 -8 -8 -60 45 -56 58 2 5 1
7 -3 3 -9 -9 -56 33 -49 44 3 4 -1 8 -8 8 -7 0 -24 14 -37 30 -13 17 -30 30
-38 30 -8 0 -11 5 -8 10 3 6 -1 10 -9 10 -9 0 -15 6 -13 13 1 6 -4 11 -10 10
-7 -2 -13 1 -13 5 0 15 -37 52 -44 45 -3 -3 -6 -1 -6 6 0 19 -37 54 -49 46 -7
-4 -10 -1 -9 7 2 7 -3 12 -9 11 -7 -2 -12 0 -12 5 3 20 -3 32 -17 32 -8 0 -12
4 -9 10 3 6 1 10 -4 10 -14 0 -71 59 -71 73 0 6 -3 8 -6 5 -7 -8 -94 75 -94
90 0 12 -14 17 -35 12 -5 -1 -7 1 -3 5 4 4 -11 24 -33 44 -21 21 -36 41 -31
46 4 5 1 5 -6 1 -7 -4 -15 -1 -18 8 -3 9 -13 16 -21 16 -8 0 -11 5 -8 10 3 6
-1 10 -9 10 -9 0 -15 3 -14 8 2 4 -10 19 -25 34 -15 15 -27 25 -27 22 0 -3 -7
1 -15 10 -8 8 -15 20 -15 26 0 6 -3 9 -7 7 -10 -6 -34 19 -26 27 4 3 1 6 -6 6
-15 0 -81 66 -81 81 0 6 -7 8 -16 5 -8 -3 -13 -2 -11 2 6 10 -130 141 -139
133 -4 -3 -4 2 -1 12 6 15 -3 22 -25 18 -5 0 -8 6 -8 14 0 8 -5 15 -11 15 -5
0 -7 4 -4 10 4 6 -1 7 -11 3 -14 -5 -16 -3 -11 11 4 10 3 15 -3 11 -6 -3 -13
1 -16 9 -3 8 -14 18 -23 21 -10 3 -24 17 -31 30 -7 14 -19 25 -26 25 -12 0
-29 28 -25 43 1 5 -3 6 -9 2 -12 -7 -42 19 -33 29 4 3 1 6 -6 6 -16 0 -91 75
-91 91 0 7 -3 10 -6 6 -9 -9 -44 25 -37 36 3 6 1 7 -5 3 -7 -4 -12 -2 -12 4 0
6 -4 8 -10 5 -9 -6 -14 8 -11 28 1 5 -3 6 -9 2 -5 -3 -10 -2 -10 4 0 5 -9 12
-20 16 -11 3 -19 11 -17 17 1 6 -8 17 -20 23 -13 7 -20 15 -16 18 3 4 1 7 -6
7 -7 0 -9 5 -6 10 4 6 3 10 -2 9 -21 -4 -34 2 -27 13 5 7 2 9 -9 5 -11 -4 -14
-2 -10 9 3 8 -1 14 -11 14 -9 0 -16 6 -16 13 0 13 -40 43 -53 39 -5 -1 -6 2
-3 7 8 12 -23 43 -35 35 -5 -3 -8 -1 -7 3 2 5 -26 38 -62 73 -36 35 -63 68
-62 74 2 6 1 8 -3 4 -9 -8 -35 16 -35 32 0 6 -4 9 -9 6 -10 -7 -43 28 -36 37
3 4 2 5 -1 3 -3 -2 -18 9 -33 25 -15 16 -31 26 -34 22 -4 -3 -7 -1 -7 6 0 15
-25 41 -39 41 -6 0 -10 5 -9 12 2 7 -2 12 -8 13 -13 0 -112 103 -106 110 3 3
-2 5 -12 5 -9 0 -14 5 -11 10 3 6 -1 10 -9 10 -8 0 -17 9 -21 20 -3 11 -10 19
-14 17 -5 -1 -20 10 -34 25 -14 15 -28 24 -32 20 -4 -4 -6 -2 -5 3 4 20 0 36
-9 31 -4 -3 -21 10 -37 29 -16 19 -35 35 -43 35 -8 0 -12 3 -8 6 8 8 -25 44
-35 38 -4 -3 -8 -1 -8 4 0 4 -25 34 -55 65 -30 31 -55 54 -55 51 0 -3 -7 1
-15 10 -8 8 -15 19 -15 25 0 6 -3 11 -7 11 -17 1 -73 59 -73 76 0 12 -3 15 -8
8 -5 -9 -10 -8 -19 1 -10 11 -10 15 0 18 7 3 5 6 -5 6 -19 1 -88 65 -88 81 0
6 -4 9 -8 6 -5 -3 -15 6 -22 20 -10 18 -16 21 -22 12 -5 -9 -8 -5 -8 11 0 13
-3 21 -7 18 -3 -4 -13 2 -20 13 -8 11 -19 18 -24 15 -5 -4 -9 -1 -9 5 0 15
-67 80 -74 73 -3 -4 -6 -1 -6 6 0 14 -24 41 -38 41 -5 0 -14 11 -20 25 -6 14
-18 25 -27 25 -8 0 -15 7 -15 15 0 8 -7 15 -16 15 -8 0 -13 4 -10 9 3 4 -6 13
-19 19 -22 10 -30 22 -26 44 0 4 -6 5 -14 2 -14 -6 -20 6 -16 29 1 5 -3 6 -9
2 -11 -7 -43 19 -34 28 3 3 -8 11 -25 18 -20 9 -26 16 -18 21 9 6 9 8 0 8 -18
0 -63 41 -57 52 3 4 1 8 -5 8 -6 0 -24 14 -41 30 -17 17 -35 30 -40 30 -6 0
-10 9 -10 20 0 14 -5 18 -17 13 -10 -3 -15 -3 -11 1 7 9 -50 66 -66 66 -5 0
-7 3 -3 6 8 8 -18 34 -33 34 -6 0 -8 5 -5 10 3 6 -1 10 -9 10 -15 0 -21 12
-17 34 1 5 -5 3 -14 -4 -9 -7 -15 -9 -14 -4 3 19 -1 34 -12 34 -14 0 -39 26
-39 41 0 7 -3 10 -6 6 -9 -9 -74 60 -74 78 0 9 -4 14 -9 10 -5 -3 -12 -1 -16
5 -4 6 -11 8 -16 5 -5 -4 -9 -2 -9 4 0 5 -38 49 -85 97 -47 48 -85 83 -85 79
0 -5 -6 0 -14 10 -8 11 -12 23 -10 27 3 4 -3 5 -12 1 -12 -4 -15 -3 -10 5 5 8
-1 12 -16 12 -18 0 -20 2 -8 10 11 7 11 10 2 10 -7 0 -10 5 -7 10 4 6 3 10 -2
9 -16 -4 -43 13 -43 28 0 8 -4 11 -10 8 -5 -3 -10 -2 -10 3 0 16 -29 22 -42 8z
m12057 -306 c3 -5 1 -10 -4 -10 -6 0 -11 5 -11 10 0 6 2 10 4 10 3 0 8 -4 11
-10z m-13395 -1004 c0 -2 -8 -10 -17 -17 -16 -13 -17 -12 -4 4 13 16 21 21 21
13z m13280 -1660 c0 -2 -8 -10 -17 -17 -16 -13 -17 -12 -4 4 13 16 21 21 21
13z"/>
<path d="M4280 9270 c-9 -6 -10 -10 -3 -10 6 0 15 5 18 10 8 12 4 12 -15 0z"/>
</g>
</svg>
